<svg width="748" height="414" viewBox="0 0 748 414" fill="none" xmlns="http://www.w3.org/2000/svg">
<g filter="url(#filter0_d)">
<path d="M686.657 376.616L89.6815 376.434C89.6815 376.434 8.48168 285.705 48.167 192.305C74.0333 131.422 171.064 98.0621 225.823 131.422C249.145 145.633 323.97 131.902 363.923 73.0772C381.513 47.1794 409.023 30.7126 440.483 22.7741C441.448 22.5298 442.416 22.2939 443.391 22.0682C444.37 21.8385 445.352 21.617 446.338 21.4017C472.82 15.6844 501.763 15.7982 529.762 21.2195C531.797 21.6149 533.831 22.0372 535.858 22.4885C564.611 28.8848 592.091 40.9052 614.55 57.9807C616.541 59.4938 618.495 61.0484 620.405 62.6402C658.894 94.7521 680.292 142.847 663.188 203.694C639.318 288.628 735.838 291.715 686.657 376.616" fill="#94B2ED"/>
<path d="M529.762 21.2196C525.842 20.4599 521.903 19.8058 517.955 19.2551C521.903 19.8037 525.842 20.4599 529.762 21.2196ZM517.885 19.2469C517.873 19.2448 517.859 19.2427 517.847 19.2407C517.859 19.2427 517.873 19.2448 517.885 19.2469Z" fill="#405996"/>
<path d="M559.221 179.094H453.954L465.88 125.016L446.339 109.54V21.4017C445.352 21.617 444.37 21.8385 443.391 22.0682C444.37 21.8385 445.352 21.617 446.339 21.4017V77.6353C446.339 77.6353 446.956 77.6664 448.015 77.6664C452.923 77.6664 467.292 76.9688 473.388 69.1049C480.8 59.5415 481.214 60.2763 494.045 55.5111C506.875 50.746 510.297 44.8838 505.482 36.819C500.798 28.9737 518.306 36.5976 513.535 18.6858C504.888 17.6571 496.214 17.1333 487.612 17.1333C480.627 17.1333 473.692 17.4791 466.855 18.1746C473.692 17.4791 480.627 17.1333 487.612 17.1333C496.214 17.1333 504.888 17.6571 513.535 18.6858C514.972 18.8556 516.41 19.0419 517.847 19.2406C517.859 19.2427 517.873 19.2448 517.885 19.2469C517.908 19.2489 517.932 19.253 517.955 19.2551C521.903 19.8057 525.842 20.4598 529.762 21.2195C531.798 21.6149 533.831 22.0372 535.858 22.4885C564.611 28.8848 592.091 40.9052 614.55 57.9807V143.488C612.612 142.037 610.368 141.346 607.988 141.346C603.171 141.346 597.809 144.186 593.377 149.332C586.754 157.02 580.96 154.105 569.787 161.087C559.277 167.653 559.193 177.898 559.221 179.094" fill="#355195"/>
<path d="M117.214 260.822H95.7024V254.095H117.283C118.961 254.095 120.321 255.299 120.321 256.786V258.071C120.321 259.59 118.93 260.822 117.214 260.822" fill="#FCECDB"/>
<path d="M138.682 256.862V257.874C138.682 258.417 138.518 258.922 138.23 259.359C137.654 260.234 136.581 260.822 135.353 260.822H95.0432C94.7765 260.822 94.5603 260.632 94.5603 260.396V260.245C94.5603 260.009 94.7765 259.816 95.0432 259.816H119.616C119.747 259.675 119.863 259.522 119.961 259.359C120.191 258.974 120.321 258.537 120.321 258.071V256.786C120.321 256.548 120.286 256.318 120.221 256.1C120.111 255.73 119.914 255.39 119.651 255.101H95.0432C94.7765 255.101 94.5603 254.91 94.5603 254.674V254.523C94.5603 254.287 94.7765 254.095 95.0432 254.095H135.556C136.984 254.095 138.188 254.943 138.561 256.1C138.64 256.343 138.682 256.599 138.682 256.862" fill="#699DEE"/>
<path d="M138.561 256.1H120.221C120.111 255.73 119.914 255.39 119.652 255.101H95.0432C94.7765 255.101 94.5603 254.91 94.5603 254.674V254.523C94.5603 254.287 94.7765 254.094 95.0432 254.094H135.556C136.984 254.094 138.188 254.943 138.561 256.1" fill="#548EE2"/>
<path d="M95.7024 257.458L98.6871 257.572L95.7024 257.641V257.458Z" fill="#F4D2B8"/>
<path d="M95.7024 258.514L102.803 258.628L95.7024 258.696V258.514Z" fill="#F4D2B8"/>
<path d="M100.833 266.043H123.733V260.81H100.647C99.0663 260.81 97.7851 261.944 97.7851 263.343C97.7851 264.834 99.1495 266.043 100.833 266.043" fill="#2B478B"/>
<path d="M122.418 266.043H148.48V260.81H122.352C120.745 260.81 119.442 261.963 119.442 263.385V263.407C119.442 264.863 120.774 266.043 122.418 266.043" fill="#FCECDB"/>
<path d="M117.702 266.043H149.385C149.629 266.043 149.827 265.867 149.827 265.651C149.827 265.434 149.629 265.26 149.385 265.26H117.702C117.458 265.26 117.26 265.434 117.26 265.651C117.26 265.867 117.458 266.043 117.702 266.043Z" fill="#2B478B"/>
<path d="M117.702 261.592H149.385C149.629 261.592 149.827 261.416 149.827 261.201C149.827 260.983 149.629 260.81 149.385 260.81H117.702C117.458 260.81 117.26 260.983 117.26 261.201C117.26 261.416 117.458 261.592 117.702 261.592Z" fill="#2B478B"/>
<path d="M148.48 263.426L144.959 263.513L148.48 263.567V263.426Z" fill="#F4D2B8"/>
<path d="M148.48 262.221L140.104 262.308L148.48 262.362V262.221Z" fill="#F4D2B8"/>
<path d="M140.191 262.292C140.191 262.292 140.55 262.517 140.668 262.886C140.689 262.95 140.703 263.02 140.706 263.093C140.725 263.583 140.706 264.695 140.706 264.695L141.765 264.14L142.822 264.695V263.188C142.822 262.905 142.731 262.627 142.563 262.445C142.482 262.358 142.382 262.292 142.271 262.292H140.191Z" fill="#F99746"/>
<path d="M140.191 262.292C140.191 262.292 140.55 262.517 140.668 262.886L142.792 262.909C142.792 262.909 142.709 262.379 142.271 262.292H140.191Z" fill="#ED7D2B"/>
<path d="M301.283 375.672L301.449 375.668C302.804 375.643 303.849 374.484 303.723 373.153L294.677 278.81L286.786 279.545L299.773 374.397C299.876 375.138 300.523 375.686 301.283 375.672" fill="#6683D3"/>
<path d="M214.188 375.672L214.022 375.668C212.667 375.643 211.62 374.484 211.747 373.153L220.792 278.81L228.685 279.545L215.697 374.397C215.595 375.138 214.947 375.686 214.188 375.672" fill="#6683D3"/>
<path d="M365.092 375.672L365.258 375.668C366.613 375.643 367.661 374.484 367.532 373.153L358.488 278.81L350.595 279.545L363.584 374.397C363.685 375.138 364.334 375.686 365.092 375.672" fill="#6683D3"/>
<path d="M216.882 265.086L200.827 182.28C198.766 171.069 207.661 160.818 219.211 161.094L250.176 161.831C260.856 162.087 270.143 169.554 273.111 180.272L296.601 265.086H216.882Z" fill="#6683D3"/>
<path d="M226.595 265.086L210.54 182.28C208.479 171.069 217.374 160.818 228.924 161.094L259.888 161.831C270.57 162.087 279.857 169.554 282.826 180.272L306.315 265.086H226.595Z" fill="#6683D3"/>
<path d="M221.742 280.189H343.477C346.149 280.189 348.337 278.254 348.337 275.885V269.39C348.337 267.024 346.149 265.086 343.477 265.086H216.882V275.885C216.882 278.254 219.069 280.189 221.742 280.189Z" fill="#6683D3"/>
<path d="M279.156 280.189H356.628C358.783 280.189 360.543 278.63 360.543 276.724V268.554C360.543 266.647 358.783 265.086 356.628 265.086H279.156C277.001 265.086 275.241 266.647 275.241 268.554V276.724C275.241 278.63 277.001 280.189 279.156 280.189Z" fill="#6683D3"/>
<path d="M564.193 315.54C564.193 315.54 553.469 304.462 563.532 297.422C563.532 297.422 570.883 293.481 576.876 293.801C576.876 293.801 568.384 306.414 571.131 307.668C573.88 308.923 579.452 293.011 579.452 293.011C579.452 293.011 596.179 291.574 601.56 293.866C601.56 293.866 587.259 304.228 590.273 304.845C593.283 305.462 608.732 295.29 608.732 295.29C608.732 295.29 624.299 297.637 623.47 306.047C622.64 314.458 617.275 317.056 614.917 316.832C612.561 316.609 598.767 311.947 598.465 313.657C598.166 315.369 606.469 320.96 612.282 321.221C612.282 321.221 601.305 331.941 594.01 328.846C586.715 325.754 586.093 320.848 581.544 319.01C576.998 317.17 573.115 317.174 574.992 319.051C576.869 320.927 585.1 322.75 587.701 326.824C590.301 330.898 592.636 333.645 585.088 332.639C577.54 331.633 565.271 326.743 564.731 321.142C564.193 315.54 564.193 315.54 564.193 315.54" fill="#6683D3"/>
<path d="M615.821 306.275C615.821 306.275 573.531 304.832 564.193 315.54C564.193 315.54 562.129 321.02 555.773 326.006L554.782 328.397C554.782 328.397 562.11 321.556 564.731 321.142C564.731 321.142 560.631 307.873 615.821 306.275" fill="#6683D3"/>
<path d="M555.773 326.006C555.773 326.006 546.694 331.951 546.065 342.573L547.713 342.703C547.713 342.703 550.612 331.722 555.85 327.426C561.091 323.131 555.773 326.006 555.773 326.006Z" fill="#6683D3"/>
<path d="M526.695 301.607C526.695 301.607 543.756 293.145 535.792 281.663C535.792 281.663 529.425 274.612 522.599 272.799C522.599 272.799 526.239 289.922 522.599 290.326C518.96 290.727 520.096 270.986 520.096 270.986C520.096 270.986 502.125 263.331 495.073 263.935C495.073 263.935 506.221 280.655 502.581 280.253C498.942 279.849 486.429 262.927 486.429 262.927C486.429 262.927 468.005 259.907 465.046 269.576C462.089 279.245 466.866 284.081 469.597 284.685C472.327 285.289 489.842 285.087 489.386 287.103C488.933 289.117 477.102 292.34 470.506 290.527C470.506 290.527 477.785 306.441 487.341 305.635C496.894 304.83 499.851 299.591 505.765 299.189C511.681 298.786 516.003 300.196 513.046 301.607C510.087 303.017 500.078 302.069 495.302 305.664C490.524 309.262 486.658 311.477 495.529 313.09C504.402 314.7 520.325 313.694 523.509 307.65C526.695 301.607 526.695 301.607 526.695 301.607" fill="#6683D3"/>
<path d="M473.463 272.598C473.463 272.598 521.234 286.295 526.695 301.607C526.695 301.607 526.466 308.455 531.244 316.312V319.335C531.244 319.335 526.239 309.059 523.509 307.65C523.509 307.65 534.201 294.354 473.463 272.598" fill="#6683D3"/>
<path d="M531.244 316.313C531.244 316.313 538.611 326.22 534.411 338.279L532.515 337.828C532.515 337.828 534.355 324.545 530.5 317.865C526.646 311.183 531.244 316.313 531.244 316.313Z" fill="#6683D3"/>
<path d="M553.838 289.939C553.838 289.939 531.346 278.786 541.842 263.648C541.842 263.648 550.238 254.353 559.235 251.965C559.235 251.965 554.436 274.536 559.235 275.068C564.032 275.598 562.533 249.574 562.533 249.574C562.533 249.574 586.222 239.485 595.518 240.279C595.518 240.279 580.824 262.321 585.623 261.789C590.42 261.259 606.913 238.953 606.913 238.953C606.913 238.953 631.202 234.97 635.099 247.715C638.998 260.462 632.7 266.835 629.103 267.632C625.503 268.427 602.416 268.162 603.014 270.818C603.615 273.474 619.206 277.722 627.904 275.333C627.904 275.333 618.308 296.31 605.714 295.248C593.12 294.186 589.221 287.283 581.425 286.751C573.627 286.221 567.931 288.08 571.83 289.939C575.726 291.795 588.921 290.547 595.219 295.288C601.516 300.028 606.614 302.949 594.919 305.075C583.223 307.198 562.234 305.869 558.036 297.904C553.838 289.939 553.838 289.939 553.838 289.939" fill="#6683D3"/>
<path d="M624.005 251.7C624.005 251.7 561.033 269.756 553.838 289.939C553.838 289.939 554.137 298.966 547.84 309.322V313.305C547.84 313.305 554.436 299.763 558.036 297.904C558.036 297.904 543.941 280.377 624.005 251.7" fill="#6683D3"/>
<path d="M547.84 309.322C547.84 309.322 538.128 322.382 543.665 338.279L546.164 337.685C546.164 337.685 543.738 320.175 548.819 311.369C553.899 302.562 547.84 309.322 547.84 309.322" fill="#6683D3"/>
<path d="M553.078 372.751C577.409 372.751 597.133 355.284 597.133 333.74H509.026C509.026 355.284 528.749 372.751 553.078 372.751" fill="#6683D3"/>
<path d="M597.741 374.736H508.418C508.418 372.078 510.851 369.923 513.852 369.923H592.306C595.307 369.923 597.741 372.078 597.741 374.736" fill="#6683D3"/>
<path d="M598.136 334.936H507.576V333.74H598.136V334.936Z" fill="#6683D3"/>
<path d="M202.614 267.767V270.481C202.614 271.431 202.266 272.207 201.842 272.207H90.0061C89.5821 272.207 89.2348 271.431 89.2348 270.481V267.767C89.2348 266.819 89.5821 266.041 90.0061 266.041H201.842C202.266 266.041 202.614 266.819 202.614 267.767Z" fill="#728FD6"/>
<path d="M202.613 267.767V270.481C202.613 271.431 202.295 272.207 201.906 272.207H113.12C112.731 272.207 112.412 271.431 112.412 270.481V267.767C112.412 266.819 112.731 266.041 113.12 266.041H201.906C202.295 266.041 202.613 266.819 202.613 267.767" fill="#7A98E2"/>
<path d="M174.308 374.689H94.9112V272.207H174.308V374.689Z" fill="#6683D3"/>
<path d="M196.558 374.689H117.161V272.207H196.558V374.689Z" fill="#7A98E2"/>
<path d="M122.193 368.354H191.527V275.78H122.193V368.354ZM192.293 369.031H121.428V275.103H192.293V369.031Z" fill="#6683D3"/>
<path d="M191.91 306.853H121.811V306.176H191.91V306.853Z" fill="#6683D3"/>
<path d="M191.91 338.53H121.811V337.853H191.91V338.53Z" fill="#6683D3"/>
<path d="M164.043 281.16H151.036C150.404 281.16 149.888 280.702 149.888 280.143C149.888 279.584 150.404 279.127 151.036 279.127H164.043C164.675 279.127 165.191 279.584 165.191 280.143C165.191 280.702 164.675 281.16 164.043 281.16Z" fill="#6683D3"/>
<path d="M164.043 312.137H151.036C150.404 312.137 149.888 311.68 149.888 311.121C149.888 310.562 150.404 310.105 151.036 310.105H164.043C164.675 310.105 165.191 310.562 165.191 311.121C165.191 311.68 164.675 312.137 164.043 312.137Z" fill="#6683D3"/>
<path d="M164.043 344.429H151.036C150.404 344.429 149.888 343.972 149.888 343.413C149.888 342.854 150.404 342.397 151.036 342.397H164.043C164.675 342.397 165.191 342.854 165.191 343.413C165.191 343.972 164.675 344.429 164.043 344.429Z" fill="#6683D3"/>
<path d="M119.403 244.419L121.734 244.75L126.147 220.418L123.815 220.084L119.403 244.419Z" fill="#B5453C"/>
<path d="M125.758 215.967L126.147 220.418L123.815 220.084L125.758 215.967Z" fill="#EFCBAB"/>
<path d="M103.641 246.752L105.963 246.371L100.879 222.14L98.5576 222.523L103.641 246.752Z" fill="#B5453C"/>
<path d="M98.8232 218.066L100.879 222.14L98.5576 222.523L98.8232 218.066Z" fill="#EFCBAB"/>
<path d="M106.585 239.646L108.906 239.263L103.822 215.034L101.501 215.415L106.585 239.646Z" fill="#B5453C"/>
<path d="M101.767 210.958L103.822 215.034L101.501 215.415L101.767 210.958Z" fill="#EFCBAB"/>
<path d="M98.8075 254.095H117.406V230.358H98.8075V254.095Z" fill="#ED7D2B"/>
<path d="M108.107 254.095H126.705V230.358H108.107V254.095Z" fill="#F99746"/>
<path d="M614.55 57.9807V179.094H446.339V21.4017C445.352 21.617 444.37 21.8385 443.391 22.0682C442.416 22.2939 441.449 22.5298 440.483 22.7741V188.606H620.405V62.6402C618.496 61.0484 616.541 59.4938 614.55 57.9807" fill="#6683D3"/>
<path d="M636.331 188.604H423.195C423.195 183.416 427.942 179.21 433.803 179.21H625.721C631.581 179.21 636.331 183.416 636.331 188.604" fill="#6683D3"/>
<path d="M535.858 22.4885V183.421H529.762V21.2195C531.798 21.6149 533.831 22.0372 535.858 22.4885Z" fill="#6683D3"/>
<path d="M446.591 212.483H314.478C314.478 212.483 428.447 95.6071 428.585 95.4808L440.483 104.901V179.21H433.803C427.943 179.21 423.195 183.416 423.195 188.604H440.483V188.606H451.855L446.591 212.483Z" fill="#DFDBE1"/>
<path d="M453.954 179.094H446.339V109.54L465.88 125.016L453.954 179.094Z" fill="#C2BEC7"/>
<path d="M451.855 188.606H440.483L451.858 188.604L451.855 188.606ZM453.929 179.21H440.483V104.901L446.339 109.54V179.094H453.954L453.929 179.21" fill="#D1CDD9"/>
<path d="M451.857 188.604H423.195C423.195 183.416 427.942 179.21 433.803 179.21H440.483H453.928L451.857 188.604Z" fill="#D1CDD9"/>
<path d="M486.483 207.642H484.187V172.657L507.661 119.617L465.752 90.8585L467.156 89.2522L510.424 118.944L486.483 173.042V207.642" fill="#163560"/>
<path d="M461.013 94.5224C459.959 93.86 459.711 92.5663 460.459 91.6327L463.949 87.2733C464.697 86.3397 466.158 86.1203 467.212 86.7806C468.267 87.443 468.514 88.7368 467.769 89.6703L464.277 94.0318C463.531 94.9654 462.07 95.1848 461.013 94.5224" fill="#163560"/>
<path d="M505.482 119.008C505.482 117.522 506.842 116.317 508.518 116.317C510.197 116.317 511.557 117.522 511.557 119.008C511.557 120.493 510.197 121.697 508.518 121.697C506.842 121.697 505.482 120.493 505.482 119.008Z" fill="#163560"/>
<path d="M496.476 212.454H473.388V210.391C473.388 208.316 475.286 206.633 477.628 206.633H492.062C494.5 206.633 496.476 208.383 496.476 210.542V212.454" fill="#163560"/>
<path d="M487.747 207.642H482.9V175.134H487.747V207.642Z" fill="#163560"/>
<path d="M466.21 124.697C466.102 124.804 465.992 124.912 465.88 125.013L465.854 125.038C465.749 125.144 465.642 125.243 465.532 125.343C462.397 127.752 452.007 123.434 441.956 115.475C431.907 107.516 425.902 98.8507 428.256 95.8244C428.354 95.7147 428.454 95.6091 428.562 95.5036L428.585 95.4808C428.688 95.3711 428.796 95.2614 428.906 95.1537C438.12 86.0312 453.938 85.2508 464.239 93.4066C474.54 101.567 475.424 115.572 466.21 124.697" fill="#F99746"/>
<path d="M465.88 125.015L465.857 125.036C465.822 125.078 465.789 125.113 465.754 125.148C465.686 125.22 465.611 125.28 465.529 125.343C462.397 127.75 452.005 123.436 441.956 115.473C431.907 107.518 425.902 98.8528 428.253 95.8265C428.317 95.7499 428.38 95.6733 428.447 95.6071C428.482 95.5719 428.518 95.5367 428.564 95.5056L428.585 95.4808C430.719 93.6923 436.514 95.2862 443.281 99.1675C446.161 100.819 449.218 102.885 452.245 105.282C454.62 107.168 456.771 109.087 458.641 110.962C464.739 117.094 467.813 122.751 465.88 125.015" fill="#F9DDBF"/>
<path d="M458.641 110.962C456.869 112.258 454.592 113.03 452.107 113.03C446.413 113.03 441.797 108.94 441.797 103.897C441.797 102.165 442.341 100.544 443.281 99.1674C446.161 100.819 449.218 102.885 452.245 105.282C454.62 107.168 456.771 109.087 458.641 110.962" fill="#FFEDDC"/>
<path d="M459.382 202.162H363.009L369.463 143.488H465.836L459.382 202.162" fill="#2A4E96"/>
<path d="M462.867 202.162H366.494L372.948 143.488H469.321L462.867 202.162" fill="#163560"/>
<path d="M420.175 211.067H403.074L408.667 177.254H425.769L420.175 211.067Z" fill="#2A4E96"/>
<path d="M393.027 210.051H428.137V212.488H393.027V210.051Z" fill="#2A4E96"/>
<path d="M330.805 348.874C330.805 348.874 327.664 341.299 321.427 333.562C319.445 331.103 326.67 329.652 328.325 334.05C329.98 338.449 334.12 350.788 334.12 350.788L330.805 348.874Z" fill="#163560"/>
<path d="M369.035 365.736C369.035 365.736 359.463 351.206 349.702 355.253C345.375 357.048 345.504 362.213 351.689 366.061C355.076 368.168 368.659 374.703 368.659 374.703L369.035 365.736Z" fill="#163560"/>
<path d="M347.607 328.275C347.607 328.275 343.246 338.615 344.171 342.45C345.097 346.286 342.902 353.024 344.674 356.348C346.448 359.673 342.815 362.517 339.777 363.74C338.624 364.204 334.613 355.278 333.844 352.56C333.075 349.842 330.572 344.216 328.003 339.861C325.434 335.503 327.587 331.993 331.299 330.39C335.011 328.788 340.183 320.018 340.183 320.018L347.607 328.275" fill="#FFB27D"/>
<path d="M327.178 119.079C322.722 114.256 314.445 112.958 314.445 112.958C298.143 100.832 284.025 118.081 281.232 124.411C278.436 130.737 276.746 141.487 264.965 146.595C244.04 155.67 266.765 171.174 266.765 171.174C276.253 152.625 320.506 185.71 318.477 187.182C359.839 203.38 337.311 130.044 327.178 119.079" fill="#163560"/>
<path d="M289.869 174.675C289.869 174.675 297.564 186.927 308.351 197.095C314.05 202.467 320.614 207.257 327.36 209.343C330.653 210.362 333.989 210.74 337.29 210.227C339.393 209.902 338.479 198.892 335.553 190.523C331.698 179.5 319.684 152.108 319.684 152.108L312.809 154.706C312.809 154.706 322.344 189.202 321.208 189.347L311.124 166.751L289.869 174.675" fill="#E5925A"/>
<path d="M275.178 230.571C275.178 230.571 349.05 234.43 359.07 240.462C375.746 250.499 351.803 332.949 351.803 332.949C351.803 332.949 331.986 333.508 330.41 328.863C330.41 328.863 333.975 285.782 330.854 278.341C327.736 270.899 329.66 260.584 329.66 260.584C329.66 260.584 290.902 265.821 278.593 263.244C266.283 260.665 275.178 230.571 275.178 230.571" fill="#ED7D2B"/>
<path d="M360.62 344.32C360.62 344.32 364.821 354.711 368.322 357.112C371.824 359.513 376.101 366.049 379.879 367.576C383.656 369.104 384.208 369.907 382.777 372.577C382.235 373.592 370.657 375.297 368.091 373.66C365.522 372.02 365.302 368.75 354.082 364.372C349.005 362.391 348.033 358.599 349.702 355.253C351.371 351.908 348.933 342.252 348.933 342.252L360.62 344.32" fill="#FFB27D"/>
<path d="M231.731 228.155C231.731 228.155 333.463 244.782 340.466 251.946C347.472 259.11 364.409 348.41 364.409 348.41C364.409 348.41 356.314 352.432 348.933 348.71C348.933 348.71 331.39 316.342 325.015 304.727C315.357 287.134 319.429 277.426 317.891 277.115C316.355 276.805 253.563 271.458 235.536 260.894C224.913 254.668 231.731 228.155 231.731 228.155Z" fill="#F99746"/>
<path d="M311.198 199.658C308.09 202.504 309.562 203.794 309.562 205C309.562 209.612 308.824 210.699 305.294 212.345C301.023 214.334 296.051 215.373 294.915 218.399L294.913 218.406C294.677 219.033 294.607 219.749 294.742 220.575C297.307 236.222 280.778 244.436 271.769 248.085C266.19 250.344 255.828 252.882 246.459 253.784C236.029 254.79 226.828 253.77 226.811 248.085C226.646 198.937 247.703 171.357 263.13 161.071C268.495 157.496 284.642 153.544 294.742 157.57C299.523 159.475 306.783 161.973 311.124 166.753C315.808 171.909 321.21 189.349 321.21 189.349C319.443 198.534 311.198 199.658 311.198 199.658" fill="#F9DDBF"/>
<path d="M264.965 178.513C265.051 178.862 263.511 191.212 272.775 203.533C276.152 208.023 261.253 206.186 271.286 215.8C272.424 212.771 301.026 214.334 305.294 212.345L286.278 197.656L264.965 178.513" fill="#EAC3A2"/>
<path d="M319.144 154.997C319.144 154.997 324.09 149.781 324.957 148.2C325.824 146.62 324.202 139.81 322.185 139.855C320.913 139.882 319.347 144.008 317.956 145.507C316.565 147.005 310.513 149.137 313.073 155.438C313.363 156.148 319.144 154.997 319.144 154.997" fill="#E5925A"/>
<path d="M306.565 165.432C307.961 167.287 306.257 172.485 298.347 170.866C293.153 169.804 283.034 162.344 284.859 158.537C285.729 156.728 290.708 152.48 293.838 141.435L294.742 141.818L309.974 148.249C309.974 148.249 308.323 152.636 307.101 156.846C306.072 160.377 305.988 164.666 306.565 165.432" fill="#FFB27D"/>
<path d="M309.973 148.249C309.973 148.249 308.323 152.636 307.101 156.846C298.188 154.596 295.53 146.274 294.742 141.818L309.973 148.249Z" fill="#F4A269"/>
<path d="M318.646 150.665C318.646 150.665 297.295 155.051 294.415 143.234C291.535 131.418 286.839 124.026 300.35 120.727C313.859 117.425 317.615 121.426 319.66 125.165C321.703 128.901 324.125 149.218 318.646 150.665Z" fill="#FFB27D"/>
<path d="M310.037 118.582C310.037 118.582 309.903 132.18 298.595 138.781C291.977 142.642 291.666 146.595 291.666 146.595C291.666 146.595 287.749 134.958 287.127 126.206C287.127 126.206 304.013 112.823 310.037 118.582Z" fill="#163560"/>
<path d="M308.693 120.983C308.693 120.983 315.004 122.842 317.811 124.9C321.967 127.947 323.052 137.854 322.556 140.321C322.556 140.321 323.69 123.101 317.43 118.712C310.792 114.061 308.693 120.983 308.693 120.983" fill="#163560"/>
<path d="M264.963 178.508C267.137 183.098 269.649 187.411 272.316 191.32C282.506 206.236 294.964 215.249 299.464 211.049C300.708 209.888 303.849 208.198 300.565 201.953C298.029 197.128 294.887 191.094 291.806 185.155C285.451 172.909 279.355 161.071 279.355 161.071C277.414 161.071 257.003 161.7 264.963 178.508" fill="#FFB27D"/>
<path d="M286.278 197.656C286.977 197.285 325.392 205.547 337.287 208.118C339.47 208.59 340.761 208.871 340.761 208.871V212.842C340.761 212.842 301.014 214.493 294.806 211.968C288.597 209.443 282.672 203.568 282.672 203.568L286.278 197.656" fill="#FFB27D"/>
<path d="M264.963 178.508C267.137 183.098 269.649 187.412 272.316 191.32C280.617 190.368 288.282 186.933 291.806 185.155C285.451 172.909 279.355 161.071 279.355 161.071C277.414 161.071 257.003 161.7 264.963 178.508" fill="#F9DDBF"/>
<path d="M337.287 208.118C337.287 208.118 349.942 204.899 353.463 205.789C355.948 206.416 359.122 209.67 360.774 211.533C361.256 212.078 360.812 212.873 360.031 212.864C357.913 212.846 354.491 212.724 352.698 211.889C351.006 211.103 348.489 212.835 345.684 212.846C343.531 212.854 340.761 212.842 340.761 212.842L337.287 208.118" fill="#FFB27D"/>
<path d="M362.186 369.201C362.186 369.201 368.191 362.031 375.779 360.685C375.779 360.685 388.203 365.736 389.309 374.703H368.659L362.186 369.201" fill="#163560"/>
<path d="M330.805 348.874C331.5 348.834 342.06 347.11 344.052 350.289C346.396 354.036 346.324 362.977 340.674 365.444C339.377 366.011 337.809 365.448 337.301 364.248L330.805 348.874" fill="#163560"/>
<path d="M271.769 248.085C266.19 250.344 255.828 252.882 246.459 253.784C248.757 253.424 284.177 241.244 275.178 230.571C267.73 221.736 264.766 216.599 274.009 215.292C277.356 214.818 290.991 217.824 294.913 218.406C294.677 219.033 294.607 219.749 294.742 220.575C297.307 236.222 280.778 244.436 271.769 248.085" fill="#EAC3A2"/>
<path d="M358.402 212.488C358.402 212.488 355.092 208.706 349.711 209.25C344.33 209.794 340.761 212.842 340.761 212.842L358.402 212.488" fill="#6683D3"/>
<path d="M530.248 221.736H267.73C265.341 221.736 263.404 220.02 263.404 217.903V216.286C263.404 214.168 265.341 212.452 267.73 212.452H530.248C532.639 212.452 534.577 214.168 534.577 216.286V217.903C534.577 220.02 532.639 221.736 530.248 221.736Z" fill="#163560"/>
<path d="M266.094 374.689C264.607 374.527 263.908 373.297 264.095 372.012L286.708 217.093L292.942 217.416L268.209 373.006C268.013 374.003 267.251 374.817 266.094 374.689" fill="#163560"/>
<path d="M528.75 374.689C530.236 374.527 530.935 373.297 530.748 372.012L508.133 217.093L501.901 217.416L526.634 373.006C526.83 374.003 527.592 374.817 528.75 374.689" fill="#163560"/>
<path d="M354.407 206.133L362.404 208.205C362.404 208.205 361.943 208.94 360.426 208.817C358.909 208.695 355.553 208.246 355.553 208.246L354.407 206.133Z" fill="#FFB27D"/>
<path d="M423.319 370.174L496.198 367.754C496.67 367.077 497.077 366.415 497.416 365.767L497.42 365.765C497.677 365.278 497.897 364.8 498.084 364.328C500.789 357.533 496.387 352.521 490.277 350.656C483.178 348.489 477.612 353.115 477.612 353.115C477.612 353.115 464.293 342.813 440.289 344.32C426.309 345.2 419.446 353.935 416.15 361.081C414.102 365.521 417.905 370.352 423.319 370.174Z" fill="#2B478B"/>
<path d="M487.843 350.157C487.843 350.157 491.326 346.119 496.083 346.361C496.083 346.361 497.81 349.805 494.047 354.332C490.284 358.861 487.843 350.157 487.843 350.157Z" fill="#2B478B"/>
<path d="M494.257 357.926C494.257 357.926 499.068 355.152 503.458 356.791C503.458 356.791 503.783 360.55 498.523 363.701C493.266 366.852 494.257 357.926 494.257 357.926Z" fill="#2B478B"/>
<path d="M425.535 363.999C425.535 363.999 432.639 366.495 440.86 364.504C449.548 362.399 471.747 360.362 475.141 368.452L425.114 370.232L425.535 363.999" fill="#2E3552"/>
<path d="M491.24 365.434L500.414 365.928C500.414 365.928 503.984 364.813 505.008 364.978C506.031 365.142 506.88 367.398 506.88 367.398L492.474 367.876L491.24 365.434Z" fill="#2B478B"/>
<path d="M423.275 362.819C423.275 362.819 429.558 367.081 438.3 365.44C447.045 363.798 465.172 363.585 467.79 365.33C467.79 365.33 470.265 366.429 468.641 368.085C467.016 369.739 453.592 369.166 447.963 369.474C443.851 369.7 422.891 371.312 419.771 369.514C416.65 367.717 423.275 362.819 423.275 362.819" fill="#2B478B"/>
<path d="M490.583 360.584C490.583 360.584 488.556 358.592 488.22 359.054C487.883 359.515 487.801 360.795 488.306 361.078C488.809 361.362 491.081 361.652 490.583 360.584" fill="#2E3552"/>
<path d="M488.138 364.655C488.47 364.964 497.415 365.767 497.415 365.767L497.42 365.765C497.677 365.278 497.897 364.8 498.084 364.328C496.3 365.843 487.806 364.345 488.138 364.655" fill="#2E3552"/>
<path d="M493.285 352.357C493.285 352.357 495.461 351.685 495.078 347.994C495.078 347.994 491.326 348.619 490.185 349.757C489.042 350.896 490.216 350.563 491.368 351.072C492.518 351.581 492.806 353.024 493.285 352.357" fill="#2E3552"/>
<path d="M498.787 361.182C498.787 361.182 501.09 361.256 502.249 357.696C502.249 357.696 498.495 357.069 496.964 357.762C495.433 358.456 496.663 358.522 497.527 359.366C498.39 360.213 498.065 361.648 498.787 361.182" fill="#2E3552"/>
<path d="M407.389 374.662C407.389 374.662 408.036 366.061 420.715 365.096C433.394 364.132 452.358 367.601 462.329 367.251C472.301 366.901 502.156 366.162 506.88 367.398C511.601 368.632 516.88 369.934 516.295 374.736L407.389 374.662Z" fill="#ED7D2B"/>
<path d="M714.945 377.088H62.3058C61.7941 377.088 61.3755 376.717 61.3755 376.264V375.49C61.3755 375.036 61.7941 374.666 62.3058 374.666H714.945C715.457 374.666 715.876 375.036 715.876 375.49V376.264C715.876 376.717 715.457 377.088 714.945 377.088Z" fill="#2E3552"/>
<path d="M559.193 179.094H614.55V141.344H559.193V179.094Z" fill="#314373"/>
<path d="M559.224 179.21C559.224 179.21 559.224 179.171 559.221 179.094H614.55V143.488V179.094L559.224 179.21Z" fill="#4A5C92"/>
<path d="M446.339 21.4017L446.343 21.3997C453.04 19.9548 459.898 18.8825 466.855 18.1746C459.894 18.8825 453.038 19.9569 446.339 21.4017" fill="#374774"/>
<path d="M448.015 77.6664C446.956 77.6664 446.339 77.6353 446.339 77.6353V21.4017C453.038 19.9568 459.894 18.8825 466.855 18.1746C473.692 17.479 480.627 17.1333 487.612 17.1333C496.214 17.1333 504.888 17.657 513.535 18.6858C518.306 36.5975 500.798 28.9737 505.482 36.819C510.297 44.8837 506.875 50.746 494.045 55.5111C481.214 60.2763 480.8 59.5414 473.388 69.1048C467.292 76.9688 452.923 77.6664 448.015 77.6664" fill="#314373"/>
<path d="M160.046 256.928C159.292 255.202 159.802 254.564 160.645 254.428C161.588 254.277 162.874 254.854 163.689 255.842C163.781 257.065 164.11 258.233 164.638 259.309C163.318 259.023 160.641 258.29 160.046 256.928ZM187.346 249.723H182.218H163.756C163.694 250.155 163.659 250.594 163.659 251.039V253.058C162.086 252.764 159.916 252.526 158.8 253.136C156.928 254.161 157.5 257.158 159.261 259.011C161.023 260.864 166.636 262.087 166.636 262.087L166.635 262.085C167.76 263.217 169.157 264.13 170.729 264.753H170.706V266.041H180.413V264.753H180.372C184.526 263.105 187.443 259.412 187.443 255.14V251.039C187.443 250.594 187.407 250.155 187.346 249.723" fill="#2C3A64"/>
</g>
<defs>
<filter id="filter0_d" x="25.2422" y="17.1333" width="690.634" height="371.954" filterUnits="userSpaceOnUse" color-interpolation-filters="sRGB">
<feFlood flood-opacity="0" result="BackgroundImageFix"/>
<feColorMatrix in="SourceAlpha" type="matrix" values="0 0 0 0 0 0 0 0 0 0 0 0 0 0 0 0 0 0 127 0"/>
<feOffset dx="-8" dy="8"/>
<feGaussianBlur stdDeviation="2"/>
<feColorMatrix type="matrix" values="0 0 0 0 0 0 0 0 0 0 0 0 0 0 0 0 0 0 0.25 0"/>
<feBlend mode="darken" in2="BackgroundImageFix" result="effect1_dropShadow"/>
<feBlend mode="normal" in="SourceGraphic" in2="effect1_dropShadow" result="shape"/>
</filter>
</defs>
</svg>
