<?xml version="1.0" encoding="UTF-8"?>
<svg xmlns="http://www.w3.org/2000/svg" xmlns:xlink="http://www.w3.org/1999/xlink" width="1440pt" height="809.999993pt" viewBox="0 0 1440 809.999993" version="1.2">
<defs>
<clipPath id="clip1">
  <path d="M 416 310 L 1283.339844 310 L 1283.339844 794.742188 L 416 794.742188 Z M 416 310 "/>
</clipPath>
<clipPath id="clip2">
  <path d="M 425 15.492188 L 1278 15.492188 L 1278 314 L 425 314 Z M 425 15.492188 "/>
</clipPath>
<clipPath id="clip3">
  <path d="M 416 310 L 1283.339844 310 L 1283.339844 794.742188 L 416 794.742188 Z M 416 310 "/>
</clipPath>
<clipPath id="clip4">
  <path d="M 339 773 L 395 773 L 395 794.742188 L 339 794.742188 Z M 339 773 "/>
</clipPath>
<clipPath id="clip5">
  <path d="M 156.277344 760 L 215 760 L 215 794.742188 L 156.277344 794.742188 Z M 156.277344 760 "/>
</clipPath>
</defs>
<g id="surface1">
<g clip-path="url(#clip1)" clip-rule="nonzero">
<path style=" stroke:none;fill-rule:nonzero;fill:rgb(100%,100%,100%);fill-opacity:1;" d="M 1272.691406 310.578125 L 1272.386719 310.578125 L 1097.742188 385.222656 L 858.792969 487.347656 C 857.847656 487.746094 856.867188 487.949219 855.84375 487.953125 C 854.820312 487.957031 853.835938 487.765625 852.890625 487.378906 L 606.363281 385.007812 L 427.429688 310.699219 L 427.15625 310.578125 L 426.851562 310.578125 C 426.152344 310.578125 425.460938 310.648438 424.773438 310.785156 C 424.089844 310.921875 423.421875 311.125 422.777344 311.390625 C 422.132812 311.660156 421.519531 311.988281 420.9375 312.378906 C 420.355469 312.765625 419.816406 313.207031 419.324219 313.703125 C 418.828125 314.195312 418.386719 314.734375 418 315.316406 C 417.609375 315.898438 417.28125 316.511719 417.015625 317.160156 C 416.746094 317.804688 416.542969 318.472656 416.40625 319.15625 C 416.269531 319.84375 416.203125 320.535156 416.203125 321.234375 L 416.203125 784.140625 C 416.203125 784.84375 416.269531 785.535156 416.40625 786.222656 C 416.542969 786.90625 416.746094 787.574219 417.015625 788.21875 C 417.28125 788.867188 417.609375 789.480469 418 790.0625 C 418.386719 790.644531 418.828125 791.179688 419.324219 791.675781 C 419.816406 792.171875 420.355469 792.613281 420.9375 793 C 421.519531 793.390625 422.132812 793.71875 422.777344 793.988281 C 423.421875 794.253906 424.089844 794.457031 424.773438 794.59375 C 425.460938 794.730469 426.152344 794.800781 426.851562 794.800781 L 1272.691406 794.800781 C 1273.390625 794.800781 1274.082031 794.730469 1274.765625 794.59375 C 1275.453125 794.457031 1276.117188 794.253906 1276.765625 793.988281 C 1277.410156 793.71875 1278.023438 793.390625 1278.605469 793 C 1279.183594 792.613281 1279.722656 792.171875 1280.21875 791.675781 C 1280.710938 791.179688 1281.152344 790.644531 1281.542969 790.0625 C 1281.929688 789.480469 1282.257812 788.867188 1282.527344 788.21875 C 1282.792969 787.574219 1282.996094 786.90625 1283.132812 786.222656 C 1283.269531 785.535156 1283.339844 784.84375 1283.339844 784.140625 L 1283.339844 321.234375 C 1283.339844 320.535156 1283.269531 319.84375 1283.132812 319.15625 C 1282.996094 318.472656 1282.792969 317.804688 1282.527344 317.160156 C 1282.257812 316.511719 1281.929688 315.898438 1281.542969 315.316406 C 1281.152344 314.734375 1280.710938 314.199219 1280.21875 313.703125 C 1279.722656 313.207031 1279.183594 312.765625 1278.605469 312.378906 C 1278.023438 311.988281 1277.410156 311.660156 1276.765625 311.390625 C 1276.117188 311.125 1275.453125 310.921875 1274.765625 310.785156 C 1274.082031 310.648438 1273.390625 310.578125 1272.691406 310.578125 Z M 1272.691406 310.578125 "/>
</g>
<g clip-path="url(#clip2)" clip-rule="nonzero">
<path style=" stroke:none;fill-rule:nonzero;fill:rgb(24.708557%,23.919678%,33.729553%);fill-opacity:1;" d="M 1275.730469 313.621094 C 1275.414062 313.621094 1275.125 313.53125 1274.863281 313.351562 L 854.136719 20.070312 C 853.496094 19.625 852.804688 19.285156 852.058594 19.054688 C 851.316406 18.824219 850.554688 18.707031 849.777344 18.707031 C 848.996094 18.710938 848.238281 18.828125 847.492188 19.0625 C 846.75 19.296875 846.058594 19.636719 845.421875 20.082031 L 427.722656 313.347656 C 427.558594 313.460938 427.378906 313.542969 427.179688 313.585938 C 426.984375 313.628906 426.785156 313.636719 426.585938 313.601562 C 426.386719 313.566406 426.203125 313.492188 426.035156 313.386719 C 425.863281 313.277344 425.71875 313.140625 425.605469 312.972656 C 425.488281 312.808594 425.410156 312.628906 425.363281 312.429688 C 425.320312 312.234375 425.316406 312.035156 425.351562 311.835938 C 425.386719 311.636719 425.457031 311.453125 425.566406 311.28125 C 425.675781 311.113281 425.8125 310.96875 425.976562 310.851562 L 843.675781 17.589844 C 844.566406 16.964844 845.535156 16.488281 846.574219 16.160156 C 847.617188 15.832031 848.679688 15.667969 849.769531 15.664062 C 850.863281 15.664062 851.925781 15.824219 852.96875 16.148438 C 854.011719 16.476562 854.980469 16.949219 855.875 17.570312 L 1276.601562 310.851562 C 1276.875 311.039062 1277.066406 311.292969 1277.171875 311.609375 C 1277.28125 311.921875 1277.285156 312.238281 1277.183594 312.554688 C 1277.085938 312.875 1276.902344 313.128906 1276.632812 313.328125 C 1276.363281 313.523438 1276.0625 313.621094 1275.730469 313.621094 Z M 1275.730469 313.621094 "/>
</g>
<path style=" stroke:none;fill-rule:nonzero;fill:rgb(90.19928%,90.19928%,90.19928%);fill-opacity:1;" d="M 451.59375 324.019531 L 850.191406 28.332031 L 1251.8125 345.058594 L 870.726562 571.183594 L 663.832031 523.976562 Z M 451.59375 324.019531 "/>
<path style=" stroke:none;fill-rule:nonzero;fill:rgb(93.728638%,36.468506%,31.369019%);fill-opacity:1;" d="M 681.296875 710.847656 L 484.378906 710.847656 C 483.773438 710.851562 483.171875 710.792969 482.578125 710.675781 C 481.984375 710.558594 481.410156 710.386719 480.851562 710.15625 C 480.289062 709.925781 479.757812 709.640625 479.253906 709.304688 C 478.75 708.96875 478.285156 708.589844 477.855469 708.160156 C 477.429688 707.734375 477.046875 707.265625 476.707031 706.765625 C 476.371094 706.261719 476.085938 705.730469 475.855469 705.167969 C 475.625 704.609375 475.449219 704.035156 475.332031 703.4375 C 475.210938 702.84375 475.152344 702.246094 475.152344 701.640625 C 475.152344 701.035156 475.210938 700.433594 475.332031 699.839844 C 475.449219 699.246094 475.625 698.667969 475.855469 698.109375 C 476.085938 697.550781 476.371094 697.019531 476.707031 696.515625 C 477.046875 696.011719 477.429688 695.546875 477.855469 695.121094 C 478.285156 694.691406 478.75 694.308594 479.253906 693.972656 C 479.757812 693.640625 480.289062 693.355469 480.851562 693.125 C 481.410156 692.894531 481.984375 692.722656 482.578125 692.605469 C 483.171875 692.488281 483.773438 692.429688 484.378906 692.429688 L 681.296875 692.429688 C 681.902344 692.429688 682.5 692.488281 683.09375 692.605469 C 683.6875 692.722656 684.265625 692.894531 684.824219 693.125 C 685.382812 693.355469 685.914062 693.640625 686.417969 693.972656 C 686.921875 694.308594 687.386719 694.691406 687.816406 695.121094 C 688.246094 695.546875 688.628906 696.011719 688.964844 696.515625 C 689.300781 697.019531 689.585938 697.550781 689.816406 698.109375 C 690.050781 698.667969 690.226562 699.246094 690.34375 699.839844 C 690.460938 700.433594 690.519531 701.035156 690.519531 701.640625 C 690.519531 702.246094 690.460938 702.84375 690.34375 703.4375 C 690.226562 704.035156 690.050781 704.609375 689.816406 705.167969 C 689.585938 705.730469 689.300781 706.261719 688.964844 706.765625 C 688.628906 707.265625 688.246094 707.734375 687.816406 708.160156 C 687.386719 708.589844 686.921875 708.96875 686.417969 709.304688 C 685.914062 709.640625 685.382812 709.925781 684.824219 710.15625 C 684.265625 710.386719 683.6875 710.558594 683.09375 710.675781 C 682.5 710.792969 681.902344 710.851562 681.296875 710.847656 Z M 681.296875 710.847656 "/>
<path style=" stroke:none;fill-rule:nonzero;fill:rgb(93.728638%,36.468506%,31.369019%);fill-opacity:1;" d="M 555.027344 671.257812 L 484.378906 671.257812 C 483.773438 671.257812 483.175781 671.199219 482.582031 671.082031 C 481.992188 670.960938 481.414062 670.789062 480.859375 670.554688 C 480.300781 670.324219 479.769531 670.042969 479.265625 669.707031 C 478.765625 669.371094 478.300781 668.988281 477.875 668.558594 C 477.445312 668.132812 477.066406 667.667969 476.730469 667.164062 C 476.394531 666.664062 476.109375 666.132812 475.878906 665.574219 C 475.648438 665.015625 475.472656 664.4375 475.355469 663.84375 C 475.238281 663.253906 475.179688 662.652344 475.179688 662.050781 C 475.179688 661.445312 475.238281 660.84375 475.355469 660.253906 C 475.472656 659.660156 475.648438 659.082031 475.878906 658.523438 C 476.109375 657.964844 476.394531 657.4375 476.730469 656.933594 C 477.066406 656.429688 477.445312 655.964844 477.875 655.539062 C 478.300781 655.109375 478.765625 654.726562 479.265625 654.390625 C 479.769531 654.054688 480.300781 653.773438 480.859375 653.542969 C 481.414062 653.308594 481.992188 653.136719 482.582031 653.019531 C 483.175781 652.898438 483.773438 652.839844 484.378906 652.839844 L 555.027344 652.839844 C 555.632812 652.839844 556.230469 652.898438 556.824219 653.019531 C 557.414062 653.136719 557.992188 653.308594 558.546875 653.542969 C 559.105469 653.773438 559.636719 654.054688 560.140625 654.390625 C 560.640625 654.726562 561.105469 655.109375 561.53125 655.539062 C 561.960938 655.964844 562.339844 656.429688 562.675781 656.933594 C 563.011719 657.4375 563.296875 657.964844 563.527344 658.523438 C 563.757812 659.082031 563.933594 659.660156 564.050781 660.253906 C 564.167969 660.84375 564.226562 661.445312 564.226562 662.050781 C 564.226562 662.652344 564.167969 663.253906 564.050781 663.84375 C 563.933594 664.4375 563.757812 665.015625 563.527344 665.574219 C 563.296875 666.132812 563.011719 666.664062 562.675781 667.164062 C 562.339844 667.667969 561.960938 668.132812 561.53125 668.558594 C 561.105469 668.988281 560.640625 669.371094 560.140625 669.707031 C 559.636719 670.042969 559.105469 670.324219 558.546875 670.554688 C 557.992188 670.789062 557.414062 670.960938 556.824219 671.082031 C 556.230469 671.199219 555.632812 671.257812 555.027344 671.257812 Z M 555.027344 671.257812 "/>
<path style=" stroke:none;fill-rule:nonzero;fill:rgb(100%,100%,100%);fill-opacity:1;" d="M 855.796875 488.710938 C 854.285156 488.714844 852.828125 488.429688 851.429688 487.855469 L 605.601562 385.757812 L 605.601562 66.179688 C 605.605469 65.480469 605.671875 64.789062 605.808594 64.101562 C 605.945312 63.417969 606.148438 62.75 606.417969 62.105469 C 606.683594 61.457031 607.011719 60.84375 607.402344 60.261719 C 607.789062 59.679688 608.230469 59.140625 608.726562 58.648438 C 609.21875 58.152344 609.757812 57.710938 610.339844 57.320312 C 610.917969 56.933594 611.53125 56.605469 612.179688 56.335938 C 612.824219 56.066406 613.488281 55.867188 614.175781 55.730469 C 614.859375 55.589844 615.554688 55.523438 616.25 55.523438 L 1087.851562 55.523438 C 1088.550781 55.523438 1089.246094 55.589844 1089.929688 55.730469 C 1090.617188 55.867188 1091.28125 56.066406 1091.925781 56.335938 C 1092.574219 56.605469 1093.1875 56.933594 1093.765625 57.320312 C 1094.347656 57.710938 1094.886719 58.152344 1095.378906 58.648438 C 1095.875 59.140625 1096.316406 59.679688 1096.703125 60.261719 C 1097.09375 60.84375 1097.421875 61.457031 1097.6875 62.105469 C 1097.957031 62.75 1098.160156 63.417969 1098.296875 64.101562 C 1098.433594 64.789062 1098.5 65.480469 1098.503906 66.179688 L 1098.503906 385.984375 L 1098.039062 386.179688 L 860.292969 487.804688 C 858.855469 488.410156 857.355469 488.714844 855.796875 488.710938 Z M 855.796875 488.710938 "/>
<path style=" stroke:none;fill-rule:nonzero;fill:rgb(24.708557%,23.919678%,33.729553%);fill-opacity:1;" d="M 855.796875 489.472656 C 854.183594 489.472656 852.632812 489.171875 851.140625 488.5625 L 604.84375 386.269531 L 604.84375 66.179688 C 604.84375 65.429688 604.917969 64.6875 605.0625 63.953125 C 605.210938 63.21875 605.425781 62.503906 605.714844 61.8125 C 606 61.121094 606.351562 60.460938 606.769531 59.839844 C 607.183594 59.214844 607.65625 58.640625 608.1875 58.109375 C 608.71875 57.578125 609.292969 57.105469 609.914062 56.6875 C 610.539062 56.273438 611.195312 55.921875 611.886719 55.632812 C 612.578125 55.347656 613.292969 55.128906 614.027344 54.980469 C 614.761719 54.835938 615.503906 54.761719 616.25 54.761719 L 1087.851562 54.761719 C 1088.601562 54.761719 1089.34375 54.835938 1090.078125 54.980469 C 1090.8125 55.128906 1091.527344 55.347656 1092.21875 55.632812 C 1092.910156 55.921875 1093.566406 56.273438 1094.1875 56.6875 C 1094.8125 57.105469 1095.386719 57.578125 1095.917969 58.109375 C 1096.445312 58.640625 1096.921875 59.214844 1097.335938 59.839844 C 1097.753906 60.460938 1098.105469 61.121094 1098.390625 61.8125 C 1098.679688 62.503906 1098.894531 63.21875 1099.042969 63.953125 C 1099.1875 64.6875 1099.261719 65.429688 1099.261719 66.179688 L 1099.261719 386.484375 L 860.589844 488.503906 C 859.058594 489.152344 857.457031 489.472656 855.796875 489.472656 Z M 607.882812 384.234375 L 852.300781 485.746094 C 853.441406 486.207031 854.625 486.4375 855.855469 486.429688 C 857.085938 486.421875 858.269531 486.179688 859.402344 485.703125 L 1096.21875 384.476562 L 1096.21875 66.179688 C 1096.21875 65.632812 1096.164062 65.085938 1096.058594 64.546875 C 1095.949219 64.007812 1095.792969 63.484375 1095.582031 62.976562 C 1095.371094 62.46875 1095.113281 61.988281 1094.808594 61.53125 C 1094.503906 61.074219 1094.15625 60.652344 1093.765625 60.261719 C 1093.378906 59.871094 1092.957031 59.527344 1092.5 59.21875 C 1092.042969 58.914062 1091.5625 58.65625 1091.054688 58.445312 C 1090.546875 58.234375 1090.023438 58.074219 1089.484375 57.96875 C 1088.945312 57.859375 1088.402344 57.804688 1087.851562 57.804688 L 616.25 57.804688 C 615.703125 57.804688 615.160156 57.859375 614.621094 57.96875 C 614.082031 58.074219 613.558594 58.234375 613.050781 58.445312 C 612.542969 58.65625 612.0625 58.914062 611.605469 59.21875 C 611.148438 59.527344 610.726562 59.871094 610.339844 60.261719 C 609.949219 60.648438 609.601562 61.074219 609.296875 61.53125 C 608.992188 61.988281 608.734375 62.46875 608.523438 62.976562 C 608.3125 63.484375 608.15625 64.007812 608.046875 64.546875 C 607.9375 65.085938 607.886719 65.632812 607.882812 66.179688 Z M 607.882812 384.234375 "/>
<g clip-path="url(#clip3)" clip-rule="nonzero">
<path style=" stroke:none;fill-rule:nonzero;fill:rgb(24.708557%,23.919678%,33.729553%);fill-opacity:1;" d="M 1272.691406 310.578125 L 1272.386719 310.578125 L 1097.742188 385.222656 L 858.792969 487.347656 C 857.847656 487.746094 856.867188 487.949219 855.84375 487.953125 C 854.820312 487.957031 853.835938 487.765625 852.890625 487.378906 L 606.363281 385.007812 L 427.429688 310.699219 L 427.15625 310.578125 L 426.851562 310.578125 C 426.152344 310.578125 425.460938 310.648438 424.773438 310.785156 C 424.089844 310.921875 423.421875 311.125 422.777344 311.390625 C 422.132812 311.660156 421.519531 311.988281 420.9375 312.378906 C 420.355469 312.765625 419.816406 313.207031 419.324219 313.703125 C 418.828125 314.195312 418.386719 314.734375 418 315.316406 C 417.609375 315.898438 417.28125 316.511719 417.015625 317.160156 C 416.746094 317.804688 416.542969 318.472656 416.40625 319.15625 C 416.269531 319.84375 416.203125 320.535156 416.203125 321.234375 L 416.203125 784.140625 C 416.203125 784.84375 416.269531 785.535156 416.40625 786.222656 C 416.542969 786.90625 416.746094 787.574219 417.015625 788.21875 C 417.28125 788.867188 417.609375 789.480469 418 790.0625 C 418.386719 790.644531 418.828125 791.179688 419.324219 791.675781 C 419.816406 792.171875 420.355469 792.613281 420.9375 793 C 421.519531 793.390625 422.132812 793.71875 422.777344 793.988281 C 423.421875 794.253906 424.089844 794.457031 424.773438 794.59375 C 425.460938 794.730469 426.152344 794.800781 426.851562 794.800781 L 1272.691406 794.800781 C 1273.390625 794.800781 1274.082031 794.730469 1274.765625 794.59375 C 1275.453125 794.457031 1276.117188 794.253906 1276.765625 793.988281 C 1277.410156 793.71875 1278.023438 793.390625 1278.605469 793 C 1279.183594 792.613281 1279.722656 792.171875 1280.21875 791.675781 C 1280.710938 791.179688 1281.152344 790.644531 1281.542969 790.0625 C 1281.929688 789.480469 1282.257812 788.867188 1282.527344 788.21875 C 1282.792969 787.574219 1282.996094 786.90625 1283.132812 786.222656 C 1283.269531 785.535156 1283.339844 784.84375 1283.339844 784.140625 L 1283.339844 321.234375 C 1283.339844 320.535156 1283.269531 319.84375 1283.132812 319.15625 C 1282.996094 318.472656 1282.792969 317.804688 1282.527344 317.160156 C 1282.257812 316.511719 1281.929688 315.898438 1281.542969 315.316406 C 1281.152344 314.734375 1280.710938 314.199219 1280.21875 313.703125 C 1279.722656 313.207031 1279.183594 312.765625 1278.605469 312.378906 C 1278.023438 311.988281 1277.410156 311.660156 1276.765625 311.390625 C 1276.117188 311.125 1275.453125 310.921875 1274.765625 310.785156 C 1274.082031 310.648438 1273.390625 310.578125 1272.691406 310.578125 Z M 1280.296875 784.140625 C 1280.296875 784.640625 1280.246094 785.136719 1280.148438 785.628906 C 1280.054688 786.117188 1279.910156 786.59375 1279.71875 787.054688 C 1279.527344 787.515625 1279.292969 787.957031 1279.015625 788.371094 C 1278.738281 788.785156 1278.421875 789.171875 1278.066406 789.523438 C 1277.714844 789.878906 1277.332031 790.195312 1276.914062 790.472656 C 1276.5 790.75 1276.0625 790.984375 1275.601562 791.175781 C 1275.140625 791.367188 1274.664062 791.511719 1274.175781 791.609375 C 1273.683594 791.707031 1273.191406 791.753906 1272.691406 791.757812 L 426.851562 791.757812 C 426.351562 791.753906 425.855469 791.707031 425.367188 791.609375 C 424.875 791.511719 424.402344 791.367188 423.941406 791.175781 C 423.480469 790.984375 423.039062 790.75 422.625 790.472656 C 422.210938 790.195312 421.824219 789.878906 421.472656 789.523438 C 421.121094 789.171875 420.804688 788.785156 420.527344 788.371094 C 420.25 787.957031 420.015625 787.515625 419.824219 787.054688 C 419.632812 786.59375 419.488281 786.117188 419.390625 785.628906 C 419.292969 785.136719 419.242188 784.640625 419.242188 784.140625 L 419.242188 321.234375 C 419.246094 320.75 419.292969 320.265625 419.382812 319.785156 C 419.476562 319.308594 419.617188 318.84375 419.796875 318.390625 C 419.980469 317.9375 420.203125 317.507812 420.46875 317.097656 C 420.734375 316.6875 421.035156 316.308594 421.375 315.957031 C 421.710938 315.605469 422.078125 315.289062 422.476562 315.007812 C 422.875 314.726562 423.296875 314.488281 423.742188 314.289062 C 424.1875 314.085938 424.644531 313.929688 425.121094 313.820312 C 425.59375 313.707031 426.074219 313.640625 426.5625 313.621094 L 606.363281 388.296875 L 851.71875 490.195312 C 853.046875 490.738281 854.425781 491.003906 855.859375 490.996094 C 857.292969 490.988281 858.671875 490.707031 859.992188 490.152344 L 1097.742188 388.523438 L 1272.996094 313.621094 C 1273.480469 313.644531 1273.960938 313.710938 1274.433594 313.824219 C 1274.90625 313.9375 1275.367188 314.09375 1275.808594 314.292969 C 1276.253906 314.492188 1276.671875 314.734375 1277.070312 315.015625 C 1277.46875 315.296875 1277.835938 315.613281 1278.171875 315.964844 C 1278.507812 316.316406 1278.808594 316.695312 1279.074219 317.105469 C 1279.335938 317.511719 1279.558594 317.945312 1279.742188 318.394531 C 1279.925781 318.847656 1280.0625 319.3125 1280.15625 319.789062 C 1280.25 320.265625 1280.296875 320.75 1280.296875 321.234375 Z M 1280.296875 784.140625 "/>
</g>
<path style=" stroke:none;fill-rule:nonzero;fill:rgb(93.728638%,36.468506%,31.369019%);fill-opacity:1;" d="M 817.523438 174.980469 L 650.179688 174.980469 C 649.382812 174.980469 648.589844 174.902344 647.808594 174.746094 C 647.023438 174.589844 646.261719 174.359375 645.523438 174.054688 C 644.785156 173.746094 644.085938 173.371094 643.417969 172.929688 C 642.753906 172.484375 642.140625 171.980469 641.574219 171.414062 C 641.011719 170.847656 640.507812 170.230469 640.0625 169.566406 C 639.617188 168.902344 639.242188 168.199219 638.9375 167.460938 C 638.632812 166.722656 638.402344 165.960938 638.246094 165.175781 C 638.089844 164.390625 638.011719 163.597656 638.011719 162.800781 C 638.011719 162 638.089844 161.207031 638.246094 160.421875 C 638.402344 159.636719 638.632812 158.875 638.9375 158.136719 C 639.242188 157.398438 639.617188 156.695312 640.0625 156.03125 C 640.507812 155.367188 641.011719 154.75 641.574219 154.1875 C 642.140625 153.621094 642.753906 153.113281 643.417969 152.671875 C 644.085938 152.226562 644.785156 151.851562 645.523438 151.546875 C 646.261719 151.238281 647.023438 151.007812 647.808594 150.851562 C 648.589844 150.695312 649.382812 150.617188 650.179688 150.617188 L 817.523438 150.617188 C 818.324219 150.617188 819.113281 150.695312 819.898438 150.851562 C 820.683594 151.007812 821.441406 151.238281 822.179688 151.546875 C 822.917969 151.851562 823.621094 152.226562 824.285156 152.671875 C 824.949219 153.113281 825.566406 153.621094 826.128906 154.1875 C 826.695312 154.75 827.199219 155.367188 827.644531 156.03125 C 828.085938 156.695312 828.460938 157.398438 828.769531 158.136719 C 829.074219 158.875 829.304688 159.636719 829.460938 160.421875 C 829.617188 161.207031 829.695312 162 829.695312 162.800781 C 829.695312 163.597656 829.617188 164.390625 829.460938 165.175781 C 829.304688 165.960938 829.074219 166.722656 828.769531 167.460938 C 828.460938 168.199219 828.085938 168.902344 827.644531 169.566406 C 827.199219 170.230469 826.695312 170.847656 826.128906 171.414062 C 825.566406 171.980469 824.949219 172.484375 824.285156 172.929688 C 823.621094 173.371094 822.917969 173.746094 822.179688 174.054688 C 821.441406 174.359375 820.683594 174.589844 819.898438 174.746094 C 819.113281 174.902344 818.324219 174.980469 817.523438 174.980469 Z M 817.523438 174.980469 "/>
<path style=" stroke:none;fill-rule:nonzero;fill:rgb(93.728638%,36.468506%,31.369019%);fill-opacity:1;" d="M 730.808594 123.207031 L 650.179688 123.207031 C 649.382812 123.207031 648.589844 123.132812 647.808594 122.976562 C 647.023438 122.820312 646.261719 122.585938 645.523438 122.28125 C 644.785156 121.976562 644.085938 121.601562 643.417969 121.15625 C 642.753906 120.710938 642.140625 120.207031 641.574219 119.640625 C 641.011719 119.074219 640.507812 118.460938 640.0625 117.796875 C 639.617188 117.128906 639.242188 116.429688 638.9375 115.6875 C 638.632812 114.949219 638.402344 114.1875 638.246094 113.402344 C 638.089844 112.621094 638.011719 111.828125 638.011719 111.027344 C 638.011719 110.226562 638.089844 109.433594 638.246094 108.652344 C 638.402344 107.867188 638.632812 107.105469 638.9375 106.367188 C 639.242188 105.625 639.617188 104.925781 640.0625 104.257812 C 640.507812 103.59375 641.011719 102.980469 641.574219 102.414062 C 642.140625 101.847656 642.753906 101.34375 643.417969 100.898438 C 644.085938 100.453125 644.785156 100.078125 645.523438 99.773438 C 646.261719 99.464844 647.023438 99.234375 647.808594 99.078125 C 648.589844 98.921875 649.382812 98.84375 650.179688 98.84375 L 730.808594 98.84375 C 731.609375 98.84375 732.402344 98.921875 733.183594 99.078125 C 733.96875 99.234375 734.730469 99.464844 735.46875 99.773438 C 736.207031 100.078125 736.90625 100.453125 737.570312 100.898438 C 738.234375 101.34375 738.851562 101.847656 739.414062 102.414062 C 739.980469 102.980469 740.484375 103.59375 740.929688 104.257812 C 741.375 104.925781 741.75 105.625 742.054688 106.367188 C 742.359375 107.105469 742.589844 107.867188 742.746094 108.652344 C 742.902344 109.433594 742.980469 110.226562 742.980469 111.027344 C 742.980469 111.828125 742.902344 112.621094 742.746094 113.402344 C 742.589844 114.1875 742.359375 114.949219 742.054688 115.6875 C 741.75 116.429688 741.375 117.128906 740.929688 117.796875 C 740.484375 118.460938 739.980469 119.074219 739.414062 119.640625 C 738.851562 120.207031 738.234375 120.710938 737.570312 121.15625 C 736.90625 121.601562 736.207031 121.976562 735.46875 122.28125 C 734.730469 122.585938 733.96875 122.820312 733.183594 122.976562 C 732.402344 123.132812 731.609375 123.207031 730.808594 123.207031 Z M 730.808594 123.207031 "/>
<path style=" stroke:none;fill-rule:nonzero;fill:rgb(79.998779%,79.998779%,79.998779%);fill-opacity:1;" d="M 977.210938 296.796875 L 721.632812 296.796875 C 720.835938 296.796875 720.042969 296.71875 719.261719 296.566406 C 718.476562 296.410156 717.714844 296.175781 716.976562 295.871094 C 716.238281 295.566406 715.539062 295.191406 714.871094 294.746094 C 714.207031 294.300781 713.59375 293.796875 713.027344 293.230469 C 712.464844 292.664062 711.960938 292.050781 711.515625 291.382812 C 711.070312 290.71875 710.695312 290.019531 710.390625 289.277344 C 710.085938 288.539062 709.855469 287.777344 709.699219 286.992188 C 709.542969 286.207031 709.464844 285.417969 709.464844 284.617188 C 709.464844 283.816406 709.542969 283.023438 709.699219 282.242188 C 709.855469 281.457031 710.085938 280.695312 710.390625 279.957031 C 710.695312 279.214844 711.070312 278.515625 711.515625 277.847656 C 711.960938 277.183594 712.464844 276.570312 713.027344 276.003906 C 713.59375 275.4375 714.207031 274.933594 714.871094 274.488281 C 715.539062 274.042969 716.238281 273.667969 716.976562 273.363281 C 717.714844 273.054688 718.476562 272.824219 719.261719 272.667969 C 720.042969 272.511719 720.835938 272.433594 721.632812 272.433594 L 977.210938 272.433594 C 978.011719 272.433594 978.800781 272.511719 979.585938 272.667969 C 980.371094 272.824219 981.132812 273.054688 981.871094 273.363281 C 982.609375 273.667969 983.308594 274.042969 983.972656 274.488281 C 984.636719 274.933594 985.253906 275.4375 985.816406 276.003906 C 986.382812 276.570312 986.886719 277.183594 987.332031 277.847656 C 987.773438 278.515625 988.148438 279.214844 988.457031 279.957031 C 988.761719 280.695312 988.992188 281.457031 989.148438 282.242188 C 989.304688 283.023438 989.382812 283.816406 989.382812 284.617188 C 989.382812 285.417969 989.304688 286.207031 989.148438 286.992188 C 988.992188 287.777344 988.761719 288.539062 988.457031 289.277344 C 988.148438 290.019531 987.773438 290.71875 987.332031 291.382812 C 986.886719 292.050781 986.382812 292.664062 985.816406 293.230469 C 985.253906 293.796875 984.636719 294.300781 983.972656 294.746094 C 983.308594 295.191406 982.609375 295.566406 981.871094 295.871094 C 981.132812 296.175781 980.371094 296.410156 979.585938 296.566406 C 978.800781 296.71875 978.011719 296.796875 977.210938 296.796875 Z M 977.210938 296.796875 "/>
<path style=" stroke:none;fill-rule:nonzero;fill:rgb(79.998779%,79.998779%,79.998779%);fill-opacity:1;" d="M 977.210938 353.140625 L 721.632812 353.140625 C 720.835938 353.140625 720.042969 353.0625 719.261719 352.90625 C 718.476562 352.75 717.714844 352.519531 716.976562 352.210938 C 716.238281 351.90625 715.539062 351.53125 714.871094 351.085938 C 714.207031 350.640625 713.59375 350.136719 713.027344 349.570312 C 712.464844 349.003906 711.960938 348.390625 711.515625 347.726562 C 711.070312 347.058594 710.695312 346.359375 710.390625 345.621094 C 710.085938 344.878906 709.855469 344.117188 709.699219 343.335938 C 709.542969 342.550781 709.464844 341.757812 709.464844 340.957031 C 709.464844 340.15625 709.542969 339.367188 709.699219 338.582031 C 709.855469 337.796875 710.085938 337.035156 710.390625 336.296875 C 710.695312 335.558594 711.070312 334.855469 711.515625 334.191406 C 711.960938 333.523438 712.464844 332.910156 713.027344 332.34375 C 713.59375 331.777344 714.207031 331.273438 714.871094 330.828125 C 715.539062 330.382812 716.238281 330.007812 716.976562 329.703125 C 717.714844 329.398438 718.476562 329.164062 719.261719 329.011719 C 720.042969 328.855469 720.835938 328.777344 721.632812 328.777344 L 977.210938 328.777344 C 978.011719 328.777344 978.800781 328.855469 979.585938 329.011719 C 980.371094 329.164062 981.132812 329.398438 981.871094 329.703125 C 982.609375 330.007812 983.308594 330.382812 983.972656 330.828125 C 984.636719 331.273438 985.253906 331.777344 985.816406 332.34375 C 986.382812 332.910156 986.886719 333.523438 987.332031 334.191406 C 987.773438 334.855469 988.148438 335.558594 988.457031 336.296875 C 988.761719 337.035156 988.992188 337.796875 989.148438 338.582031 C 989.304688 339.367188 989.382812 340.15625 989.382812 340.957031 C 989.382812 341.757812 989.304688 342.550781 989.148438 343.335938 C 988.992188 344.117188 988.761719 344.878906 988.457031 345.621094 C 988.148438 346.359375 987.773438 347.058594 987.332031 347.726562 C 986.886719 348.390625 986.382812 349.003906 985.816406 349.570312 C 985.253906 350.136719 984.636719 350.640625 983.972656 351.085938 C 983.308594 351.53125 982.609375 351.90625 981.871094 352.210938 C 981.132812 352.519531 980.371094 352.75 979.585938 352.90625 C 978.800781 353.0625 978.011719 353.140625 977.210938 353.140625 Z M 977.210938 353.140625 "/>
<path style=" stroke:none;fill-rule:nonzero;fill:rgb(18.429565%,18.03894%,25.489807%);fill-opacity:1;" d="M 218.570312 367.378906 C 217.78125 367.378906 217.011719 367.246094 216.269531 366.976562 C 215.523438 366.710938 214.847656 366.324219 214.234375 365.824219 C 213.625 365.324219 213.113281 364.734375 212.707031 364.054688 C 212.300781 363.375 212.015625 362.648438 211.859375 361.875 L 206.324219 334.253906 C 205.964844 332.445312 205.691406 330.621094 205.507812 328.785156 C 205.328125 326.953125 205.234375 325.109375 205.230469 323.265625 C 205.230469 321.421875 205.316406 319.582031 205.496094 317.746094 C 205.675781 315.910156 205.941406 314.085938 206.300781 312.277344 C 206.65625 310.46875 207.101562 308.679688 207.636719 306.914062 C 208.167969 305.148438 208.785156 303.414062 209.488281 301.707031 C 210.191406 300.003906 210.976562 298.335938 211.84375 296.707031 C 212.710938 295.078125 213.652344 293.496094 214.675781 291.960938 C 215.699219 290.425781 216.792969 288.945312 217.960938 287.519531 C 219.125 286.089844 220.359375 284.722656 221.664062 283.417969 C 222.964844 282.113281 224.324219 280.871094 225.75 279.699219 C 227.171875 278.527344 228.648438 277.429688 230.179688 276.402344 C 231.710938 275.375 233.289062 274.425781 234.910156 273.550781 C 236.535156 272.679688 238.199219 271.890625 239.898438 271.183594 C 241.601562 270.472656 243.332031 269.851562 245.097656 269.3125 C 246.859375 268.773438 248.644531 268.324219 250.449219 267.960938 C 252.257812 267.597656 254.078125 267.324219 255.910156 267.140625 C 257.746094 266.957031 259.585938 266.863281 261.425781 266.859375 C 263.269531 266.855469 265.109375 266.945312 266.941406 267.121094 C 268.777344 267.300781 270.597656 267.566406 272.40625 267.921875 C 274.214844 268.28125 276 268.726562 277.765625 269.257812 C 279.53125 269.789062 281.265625 270.40625 282.96875 271.109375 C 284.671875 271.8125 286.335938 272.597656 287.964844 273.464844 C 289.589844 274.332031 291.171875 275.277344 292.707031 276.296875 C 294.242188 277.320312 295.722656 278.414062 297.148438 279.582031 C 298.574219 280.75 299.941406 281.984375 301.246094 283.285156 C 302.550781 284.589844 303.789062 285.949219 304.960938 287.375 C 306.132812 288.796875 307.234375 290.277344 308.261719 291.808594 C 309.289062 293.339844 310.238281 294.917969 311.109375 296.542969 C 311.980469 298.167969 312.769531 299.832031 313.480469 301.535156 C 314.1875 303.238281 314.8125 304.972656 315.351562 306.734375 C 315.890625 308.5 316.339844 310.285156 316.703125 312.09375 L 322.238281 339.714844 C 322.324219 340.15625 322.371094 340.601562 322.371094 341.050781 C 322.371094 341.5 322.328125 341.945312 322.242188 342.386719 C 322.152344 342.828125 322.023438 343.257812 321.851562 343.671875 C 321.679688 344.089844 321.472656 344.484375 321.222656 344.859375 C 320.972656 345.234375 320.691406 345.578125 320.371094 345.898438 C 320.054688 346.214844 319.710938 346.5 319.335938 346.753906 C 318.964844 347.003906 318.570312 347.214844 318.15625 347.386719 C 317.742188 347.5625 317.3125 347.691406 316.875 347.78125 L 219.921875 367.246094 C 219.476562 367.335938 219.027344 367.378906 218.570312 367.378906 Z M 218.570312 367.378906 "/>
<path style=" stroke:none;fill-rule:nonzero;fill:rgb(62.748718%,38.038635%,41.569519%);fill-opacity:1;" d="M 390.691406 778.636719 L 373.300781 778.636719 L 365.03125 711.488281 L 390.699219 711.492188 Z M 390.691406 778.636719 "/>
<g clip-path="url(#clip4)" clip-rule="nonzero">
<path style=" stroke:none;fill-rule:nonzero;fill:rgb(18.429565%,18.03894%,25.489807%);fill-opacity:1;" d="M 360.878906 773.660156 L 394.417969 773.660156 L 394.417969 794.800781 L 339.757812 794.800781 C 339.757812 794.105469 339.792969 793.417969 339.859375 792.726562 C 339.929688 792.039062 340.03125 791.355469 340.164062 790.675781 C 340.300781 789.996094 340.46875 789.324219 340.667969 788.664062 C 340.867188 788 341.101562 787.351562 341.367188 786.710938 C 341.632812 786.070312 341.925781 785.445312 342.253906 784.835938 C 342.578125 784.222656 342.933594 783.632812 343.316406 783.054688 C 343.703125 782.480469 344.113281 781.925781 344.550781 781.390625 C 344.992188 780.855469 345.457031 780.34375 345.945312 779.851562 C 346.433594 779.363281 346.945312 778.898438 347.480469 778.460938 C 348.015625 778.019531 348.570312 777.609375 349.144531 777.222656 C 349.71875 776.839844 350.3125 776.484375 350.921875 776.15625 C 351.53125 775.832031 352.15625 775.535156 352.796875 775.269531 C 353.433594 775.003906 354.085938 774.773438 354.746094 774.570312 C 355.410156 774.371094 356.078125 774.203125 356.757812 774.066406 C 357.4375 773.933594 358.117188 773.832031 358.808594 773.761719 C 359.496094 773.695312 360.1875 773.660156 360.878906 773.660156 Z M 360.878906 773.660156 "/>
</g>
<path style=" stroke:none;fill-rule:nonzero;fill:rgb(62.748718%,38.038635%,41.569519%);fill-opacity:1;" d="M 209.476562 778.460938 L 193.460938 771.671875 L 212.003906 706.613281 L 235.636719 716.636719 Z M 209.476562 778.460938 "/>
<g clip-path="url(#clip5)" clip-rule="nonzero">
<path style=" stroke:none;fill-rule:nonzero;fill:rgb(18.429565%,18.03894%,25.489807%);fill-opacity:1;" d="M 183.957031 762.238281 L 214.839844 775.332031 L 206.605469 794.796875 L 156.273438 773.457031 C 156.542969 772.820312 156.84375 772.199219 157.175781 771.589844 C 157.503906 770.984375 157.867188 770.390625 158.253906 769.820312 C 158.644531 769.246094 159.058594 768.695312 159.503906 768.164062 C 159.945312 767.632812 160.414062 767.125 160.90625 766.636719 C 161.398438 766.152344 161.914062 765.691406 162.453125 765.257812 C 162.992188 764.820312 163.546875 764.414062 164.125 764.035156 C 164.707031 763.652344 165.300781 763.304688 165.914062 762.980469 C 166.527344 762.660156 167.152344 762.371094 167.792969 762.109375 C 168.433594 761.851562 169.085938 761.621094 169.75 761.425781 C 170.414062 761.230469 171.085938 761.066406 171.765625 760.9375 C 172.445312 760.808594 173.128906 760.714844 173.816406 760.652344 C 174.507812 760.589844 175.195312 760.558594 175.886719 760.566406 C 176.578125 760.570312 177.269531 760.609375 177.957031 760.683594 C 178.644531 760.757812 179.328125 760.863281 180.003906 761.003906 C 180.683594 761.144531 181.351562 761.316406 182.011719 761.523438 C 182.671875 761.730469 183.320312 761.96875 183.957031 762.238281 Z M 183.957031 762.238281 "/>
</g>
<path style=" stroke:none;fill-rule:nonzero;fill:rgb(62.748718%,38.038635%,41.569519%);fill-opacity:1;" d="M 300.472656 323.058594 C 300.472656 324.285156 300.414062 325.507812 300.292969 326.726562 C 300.175781 327.945312 299.996094 329.15625 299.757812 330.355469 C 299.515625 331.558594 299.21875 332.742188 298.867188 333.917969 C 298.511719 335.089844 298.097656 336.242188 297.628906 337.371094 C 297.160156 338.503906 296.640625 339.609375 296.0625 340.691406 C 295.484375 341.769531 294.855469 342.820312 294.175781 343.835938 C 293.496094 344.855469 292.769531 345.839844 291.992188 346.785156 C 291.214844 347.734375 290.394531 348.640625 289.53125 349.503906 C 288.664062 350.371094 287.757812 351.191406 286.8125 351.96875 C 285.867188 352.746094 284.886719 353.476562 283.867188 354.15625 C 282.851562 354.835938 281.800781 355.464844 280.722656 356.042969 C 279.644531 356.621094 278.539062 357.144531 277.410156 357.613281 C 276.277344 358.082031 275.128906 358.492188 273.957031 358.847656 C 272.785156 359.203125 271.597656 359.5 270.398438 359.742188 C 269.199219 359.980469 267.988281 360.160156 266.773438 360.277344 C 265.554688 360.398438 264.332031 360.460938 263.109375 360.460938 C 261.886719 360.460938 260.664062 360.398438 259.449219 360.277344 C 258.230469 360.160156 257.019531 359.980469 255.820312 359.742188 C 254.621094 359.5 253.433594 359.203125 252.261719 358.847656 C 251.09375 358.492188 249.941406 358.082031 248.8125 357.613281 C 247.679688 357.144531 246.574219 356.621094 245.496094 356.042969 C 244.417969 355.464844 243.367188 354.835938 242.351562 354.15625 C 241.332031 353.476562 240.351562 352.746094 239.40625 351.96875 C 238.460938 351.191406 237.554688 350.371094 236.6875 349.503906 C 235.824219 348.640625 235.003906 347.734375 234.226562 346.785156 C 233.449219 345.839844 232.722656 344.855469 232.042969 343.835938 C 231.363281 342.820312 230.734375 341.769531 230.15625 340.691406 C 229.582031 339.609375 229.058594 338.503906 228.589844 337.371094 C 228.121094 336.242188 227.710938 335.089844 227.355469 333.917969 C 227 332.742188 226.703125 331.558594 226.464844 330.355469 C 226.222656 329.15625 226.046875 327.945312 225.925781 326.726562 C 225.804688 325.507812 225.746094 324.285156 225.746094 323.058594 C 225.746094 321.835938 225.804688 320.613281 225.925781 319.394531 C 226.046875 318.175781 226.222656 316.964844 226.464844 315.761719 C 226.703125 314.5625 227 313.375 227.355469 312.203125 C 227.710938 311.03125 228.121094 309.878906 228.589844 308.746094 C 229.058594 307.617188 229.582031 306.511719 230.15625 305.429688 C 230.734375 304.347656 231.363281 303.300781 232.042969 302.28125 C 232.722656 301.261719 233.449219 300.28125 234.226562 299.332031 C 235.003906 298.386719 235.824219 297.480469 236.6875 296.613281 C 237.554688 295.75 238.460938 294.925781 239.40625 294.148438 C 240.351562 293.371094 241.332031 292.644531 242.351562 291.964844 C 243.367188 291.28125 244.417969 290.652344 245.496094 290.078125 C 246.574219 289.5 247.679688 288.976562 248.8125 288.507812 C 249.941406 288.039062 251.09375 287.625 252.261719 287.269531 C 253.433594 286.914062 254.621094 286.617188 255.820312 286.378906 C 257.019531 286.140625 258.230469 285.960938 259.449219 285.839844 C 260.664062 285.71875 261.886719 285.660156 263.109375 285.660156 C 264.332031 285.660156 265.554688 285.71875 266.773438 285.839844 C 267.988281 285.960938 269.199219 286.140625 270.398438 286.378906 C 271.597656 286.617188 272.785156 286.914062 273.957031 287.269531 C 275.128906 287.625 276.277344 288.039062 277.410156 288.507812 C 278.539062 288.976562 279.644531 289.5 280.722656 290.078125 C 281.800781 290.652344 282.851562 291.28125 283.867188 291.964844 C 284.886719 292.644531 285.867188 293.371094 286.8125 294.148438 C 287.757812 294.925781 288.664062 295.75 289.53125 296.613281 C 290.394531 297.480469 291.214844 298.386719 291.992188 299.332031 C 292.769531 300.28125 293.496094 301.261719 294.175781 302.28125 C 294.855469 303.300781 295.484375 304.347656 296.0625 305.429688 C 296.640625 306.511719 297.160156 307.617188 297.628906 308.746094 C 298.097656 309.878906 298.511719 311.03125 298.867188 312.203125 C 299.21875 313.375 299.515625 314.5625 299.757812 315.761719 C 299.996094 316.964844 300.175781 318.175781 300.292969 319.394531 C 300.414062 320.613281 300.472656 321.835938 300.472656 323.058594 Z M 300.472656 323.058594 "/>
<path style=" stroke:none;fill-rule:nonzero;fill:rgb(24.708557%,23.919678%,33.729553%);fill-opacity:1;" d="M 264.875 493.195312 L 264.492188 491.949219 C 254.3125 458.824219 243.789062 424.582031 233.25 392.019531 L 232.964844 391.140625 L 233.613281 390.480469 C 249.96875 373.824219 280.617188 367.179688 304.898438 375.03125 C 329.335938 382.929688 346.175781 405.078125 344.070312 426.554688 C 343.792969 429.753906 343.796875 432.953125 344.078125 436.152344 C 344.359375 439.355469 344.917969 442.503906 345.753906 445.609375 C 346.585938 448.710938 347.683594 451.714844 349.042969 454.625 C 350.402344 457.535156 352.003906 460.304688 353.851562 462.933594 L 354.824219 464.351562 L 353.300781 465.148438 C 339.652344 472.179688 325.515625 478.03125 310.890625 482.707031 C 296.269531 487.382812 281.359375 490.816406 266.167969 493.007812 Z M 264.875 493.195312 "/>
<path style=" stroke:none;fill-rule:nonzero;fill:rgb(18.429565%,18.03894%,25.489807%);fill-opacity:1;" d="M 219.8125 766.394531 C 218.457031 766.394531 217.191406 766.050781 216.019531 765.371094 L 195.835938 753.703125 C 195.425781 753.46875 195.042969 753.199219 194.683594 752.894531 C 194.320312 752.585938 193.992188 752.25 193.699219 751.882812 C 193.402344 751.511719 193.140625 751.121094 192.917969 750.703125 C 192.695312 750.289062 192.511719 749.851562 192.371094 749.402344 C 192.226562 748.953125 192.128906 748.492188 192.074219 748.023438 C 192.019531 747.550781 192.007812 747.082031 192.039062 746.609375 C 192.070312 746.136719 192.148438 745.671875 192.265625 745.214844 C 192.386719 744.757812 192.546875 744.316406 192.746094 743.886719 L 237.597656 637.371094 L 271.871094 482.015625 L 334.339844 459.28125 L 334.90625 459.542969 C 401.875 490.335938 396.699219 711.042969 394.980469 754.972656 C 394.960938 755.433594 394.902344 755.886719 394.800781 756.332031 C 394.699219 756.78125 394.5625 757.214844 394.382812 757.636719 C 394.203125 758.058594 393.988281 758.460938 393.734375 758.84375 C 393.484375 759.226562 393.199219 759.585938 392.882812 759.917969 C 392.566406 760.25 392.222656 760.550781 391.851562 760.820312 C 391.480469 761.089844 391.089844 761.324219 390.675781 761.523438 C 390.261719 761.722656 389.835938 761.882812 389.394531 762.003906 C 388.953125 762.125 388.503906 762.207031 388.046875 762.246094 L 369.261719 764.703125 C 368.789062 764.746094 368.316406 764.742188 367.84375 764.695312 C 367.371094 764.652344 366.90625 764.5625 366.449219 764.429688 C 365.992188 764.296875 365.554688 764.121094 365.128906 763.910156 C 364.707031 763.695312 364.304688 763.441406 363.925781 763.152344 C 363.550781 762.863281 363.203125 762.542969 362.882812 762.191406 C 362.566406 761.835938 362.285156 761.457031 362.035156 761.050781 C 361.789062 760.644531 361.582031 760.21875 361.414062 759.773438 C 361.246094 759.328125 361.117188 758.875 361.035156 758.40625 L 322.6875 586.863281 C 322.648438 586.53125 322.511719 586.238281 322.28125 585.996094 C 322.046875 585.75 321.765625 585.601562 321.4375 585.542969 C 321.117188 585.480469 320.8125 585.519531 320.519531 585.65625 C 320.226562 585.796875 320.003906 586.007812 319.851562 586.292969 L 226.464844 762.492188 C 225.96875 763.386719 225.316406 764.148438 224.511719 764.777344 C 223.707031 765.410156 222.8125 765.855469 221.824219 766.125 C 221.167969 766.304688 220.496094 766.394531 219.8125 766.394531 Z M 219.8125 766.394531 "/>
<path style=" stroke:none;fill-rule:nonzero;fill:rgb(62.748718%,38.038635%,41.569519%);fill-opacity:1;" d="M 242.246094 609.851562 C 242.542969 609.421875 242.8125 608.976562 243.058594 608.519531 C 243.300781 608.0625 243.523438 607.589844 243.714844 607.109375 C 243.910156 606.625 244.078125 606.132812 244.21875 605.632812 C 244.359375 605.132812 244.472656 604.625 244.554688 604.109375 C 244.640625 603.597656 244.699219 603.082031 244.726562 602.5625 C 244.753906 602.042969 244.753906 601.523438 244.726562 601.003906 C 244.699219 600.484375 244.644531 599.96875 244.558594 599.453125 C 244.472656 598.941406 244.363281 598.433594 244.222656 597.933594 C 244.082031 597.429688 243.914062 596.9375 243.722656 596.457031 C 243.527344 595.972656 243.308594 595.503906 243.0625 595.042969 C 242.820312 594.585938 242.550781 594.140625 242.253906 593.710938 C 241.960938 593.28125 241.644531 592.871094 241.308594 592.476562 C 240.96875 592.082031 240.609375 591.707031 240.230469 591.351562 C 239.851562 590.996094 239.453125 590.660156 239.035156 590.347656 C 238.621094 590.035156 238.1875 589.75 237.742188 589.484375 C 237.292969 589.21875 236.832031 588.980469 236.359375 588.765625 L 237.382812 556.152344 L 217.730469 550.695312 L 216.9375 596.773438 C 216.628906 597.589844 216.402344 598.425781 216.25 599.285156 C 216.09375 600.140625 216.019531 601.003906 216.023438 601.875 C 216.027344 602.75 216.113281 603.613281 216.273438 604.46875 C 216.433594 605.324219 216.671875 606.160156 216.984375 606.972656 C 217.296875 607.785156 217.679688 608.5625 218.136719 609.304688 C 218.589844 610.050781 219.109375 610.746094 219.691406 611.394531 C 220.269531 612.042969 220.90625 612.632812 221.59375 613.167969 C 222.285156 613.699219 223.015625 614.164062 223.789062 614.566406 C 224.5625 614.964844 225.363281 615.292969 226.199219 615.542969 C 227.03125 615.796875 227.878906 615.972656 228.746094 616.070312 C 229.609375 616.171875 230.476562 616.191406 231.34375 616.132812 C 232.214844 616.070312 233.070312 615.933594 233.914062 615.71875 C 234.757812 615.503906 235.574219 615.214844 236.363281 614.847656 C 237.15625 614.484375 237.90625 614.050781 238.617188 613.550781 C 239.332031 613.050781 239.992188 612.488281 240.601562 611.867188 C 241.210938 611.246094 241.761719 610.574219 242.246094 609.851562 Z M 242.246094 609.851562 "/>
<path style=" stroke:none;fill-rule:nonzero;fill:rgb(93.728638%,36.468506%,31.369019%);fill-opacity:1;" d="M 217.226562 575.378906 L 216.074219 575.371094 C 215.601562 575.371094 215.136719 575.324219 214.671875 575.230469 C 214.210938 575.140625 213.761719 575.007812 213.324219 574.835938 C 212.886719 574.660156 212.46875 574.445312 212.070312 574.191406 C 211.671875 573.941406 211.304688 573.652344 210.957031 573.332031 C 210.613281 573.007812 210.304688 572.65625 210.027344 572.277344 C 209.746094 571.898438 209.507812 571.492188 209.304688 571.070312 C 209.101562 570.644531 208.9375 570.203125 208.816406 569.746094 C 208.695312 569.292969 208.617188 568.828125 208.585938 568.359375 C 206.699219 544.070312 200.914062 461.332031 205.574219 416.476562 C 205.726562 415.429688 205.933594 414.398438 206.191406 413.375 C 206.449219 412.351562 206.753906 411.34375 207.113281 410.351562 C 207.472656 409.359375 207.878906 408.386719 208.335938 407.433594 C 208.789062 406.484375 209.292969 405.554688 209.839844 404.65625 C 210.386719 403.753906 210.980469 402.882812 211.613281 402.039062 C 212.25 401.199219 212.925781 400.390625 213.640625 399.617188 C 214.359375 398.839844 215.109375 398.105469 215.902344 397.40625 C 216.691406 396.707031 217.511719 396.050781 218.367188 395.433594 C 219.222656 394.816406 220.109375 394.242188 221.019531 393.714844 C 221.933594 393.1875 222.871094 392.707031 223.832031 392.273438 C 224.792969 391.839844 225.773438 391.453125 226.773438 391.117188 C 227.773438 390.78125 228.785156 390.5 229.8125 390.265625 C 230.839844 390.03125 231.878906 389.847656 232.925781 389.71875 C 233.972656 389.585938 235.019531 389.511719 236.074219 389.484375 C 237.128906 389.460938 238.179688 389.488281 239.234375 389.566406 C 240.285156 389.648438 241.328125 389.78125 242.367188 389.964844 L 243.566406 390.230469 L 243.558594 391.460938 C 243.128906 450.480469 243.15625 509.152344 243.183594 565.894531 C 243.1875 566.761719 243.042969 567.605469 242.757812 568.421875 C 242.472656 569.238281 242.0625 569.988281 241.523438 570.664062 C 240.980469 571.339844 240.34375 571.910156 239.609375 572.367188 C 238.875 572.828125 238.085938 573.152344 237.242188 573.339844 C 230.640625 574.707031 223.96875 575.386719 217.226562 575.378906 Z M 217.226562 575.378906 "/>
<path style=" stroke:none;fill-rule:nonzero;fill:rgb(93.728638%,36.468506%,31.369019%);fill-opacity:1;" d="M 261.957031 646.160156 C 260.710938 646.152344 259.472656 646.035156 258.246094 645.808594 C 257.019531 645.578125 255.824219 645.238281 254.660156 644.792969 C 253.496094 644.347656 252.378906 643.800781 251.316406 643.152344 C 250.25 642.503906 249.25 641.765625 248.316406 640.933594 C 247.386719 640.105469 246.535156 639.199219 245.769531 638.214844 C 245 637.234375 244.324219 636.1875 243.746094 635.082031 C 243.167969 633.976562 242.691406 632.828125 242.320312 631.636719 C 241.949219 630.445312 241.6875 629.230469 241.535156 627.992188 L 243.191406 491.78125 L 216.144531 423.304688 C 216.003906 422.191406 215.910156 421.074219 215.859375 419.949219 C 215.8125 418.828125 215.8125 417.707031 215.859375 416.582031 C 215.90625 415.460938 216 414.339844 216.140625 413.226562 C 216.28125 412.113281 216.46875 411.003906 216.699219 409.90625 C 216.933594 408.808594 217.210938 407.71875 217.535156 406.644531 C 217.859375 405.570312 218.230469 404.507812 218.640625 403.464844 C 219.054688 402.417969 219.511719 401.394531 220.007812 400.386719 C 220.507812 399.382812 221.046875 398.398438 221.628906 397.4375 C 222.210938 396.476562 222.832031 395.539062 223.492188 394.628906 C 224.148438 393.722656 224.847656 392.84375 225.578125 391.992188 C 226.3125 391.140625 227.078125 390.320312 227.882812 389.535156 C 228.683594 388.75 229.515625 388 230.382812 387.28125 C 231.246094 386.566406 232.140625 385.886719 233.058594 385.246094 C 233.980469 384.605469 234.929688 384 235.898438 383.441406 C 236.871094 382.878906 237.867188 382.359375 238.882812 381.878906 C 239.898438 381.398438 240.929688 380.964844 241.984375 380.574219 L 249.214844 377.859375 C 249.894531 377.601562 250.597656 377.414062 251.316406 377.296875 C 252.039062 377.179688 252.761719 377.132812 253.492188 377.160156 C 254.222656 377.183594 254.941406 377.28125 255.652344 377.449219 C 256.359375 377.617188 257.046875 377.851562 257.710938 378.15625 C 258.375 378.460938 259.003906 378.824219 259.59375 379.253906 C 260.183594 379.679688 260.730469 380.160156 261.226562 380.695312 C 261.722656 381.230469 262.160156 381.8125 262.542969 382.433594 C 262.925781 383.054688 263.242188 383.707031 263.496094 384.390625 L 291.386719 459.761719 L 291.394531 459.875 C 293.328125 489.871094 302.054688 639.171875 284.652344 643.625 C 277.253906 645.359375 269.753906 646.207031 262.152344 646.15625 Z M 261.957031 646.160156 "/>
<path style=" stroke:none;fill-rule:nonzero;fill:rgb(62.748718%,38.038635%,41.569519%);fill-opacity:1;" d="M 422.628906 558.425781 C 422.148438 558.230469 421.679688 558.011719 421.222656 557.761719 C 420.765625 557.515625 420.320312 557.246094 419.894531 556.949219 C 419.464844 556.652344 419.054688 556.335938 418.664062 555.996094 C 418.269531 555.65625 417.894531 555.292969 417.542969 554.914062 C 417.1875 554.53125 416.855469 554.132812 416.546875 553.714844 C 416.234375 553.296875 415.949219 552.863281 415.6875 552.417969 C 415.421875 551.96875 415.1875 551.503906 414.972656 551.03125 C 414.761719 550.554688 414.574219 550.070312 414.414062 549.574219 C 414.257812 549.082031 414.125 548.578125 414.019531 548.066406 C 413.914062 547.558594 413.839844 547.042969 413.789062 546.527344 C 413.742188 546.007812 413.722656 545.488281 413.730469 544.96875 C 413.738281 544.449219 413.773438 543.929688 413.839844 543.414062 C 413.902344 542.898438 413.996094 542.386719 414.117188 541.882812 C 414.238281 541.375 414.386719 540.878906 414.5625 540.386719 C 414.734375 539.898438 414.9375 539.417969 415.164062 538.949219 C 415.390625 538.484375 415.644531 538.027344 415.921875 537.589844 L 397.097656 510.949219 L 410.480469 495.550781 L 436.535156 533.542969 C 437.238281 534.054688 437.890625 534.625 438.492188 535.257812 C 439.09375 535.886719 439.632812 536.566406 440.109375 537.296875 C 440.585938 538.027344 440.992188 538.792969 441.328125 539.597656 C 441.667969 540.398438 441.929688 541.226562 442.117188 542.078125 C 442.304688 542.929688 442.410156 543.789062 442.441406 544.660156 C 442.472656 545.53125 442.421875 546.398438 442.296875 547.257812 C 442.167969 548.121094 441.964844 548.964844 441.683594 549.789062 C 441.402344 550.613281 441.050781 551.40625 440.625 552.167969 C 440.199219 552.925781 439.710938 553.644531 439.15625 554.3125 C 438.601562 554.984375 437.988281 555.601562 437.320312 556.160156 C 436.65625 556.71875 435.941406 557.214844 435.1875 557.644531 C 434.429688 558.074219 433.640625 558.433594 432.816406 558.71875 C 431.996094 559.003906 431.152344 559.214844 430.292969 559.347656 C 429.433594 559.480469 428.566406 559.535156 427.695312 559.507812 C 426.828125 559.484375 425.964844 559.378906 425.113281 559.199219 C 424.261719 559.015625 423.433594 558.757812 422.628906 558.425781 Z M 422.628906 558.425781 "/>
<path style=" stroke:none;fill-rule:nonzero;fill:rgb(93.728638%,36.468506%,31.369019%);fill-opacity:1;" d="M 403.832031 524.191406 C 402.835938 524.164062 401.898438 523.90625 401.027344 523.417969 C 400.15625 522.933594 399.445312 522.273438 398.894531 521.441406 L 398.796875 521.289062 C 367.648438 474.101562 335.4375 425.304688 302.792969 376.664062 L 302.441406 376.136719 L 302.890625 375.695312 C 304.324219 374.355469 305.875 373.175781 307.542969 372.152344 C 309.214844 371.128906 310.96875 370.285156 312.8125 369.617188 C 314.652344 368.945312 316.542969 368.46875 318.480469 368.183594 C 320.414062 367.898438 322.363281 367.808594 324.316406 367.917969 C 326.332031 367.953125 328.316406 368.199219 330.277344 368.65625 C 332.238281 369.113281 334.132812 369.769531 335.953125 370.625 C 337.777344 371.480469 339.492188 372.519531 341.09375 373.734375 C 342.699219 374.953125 344.160156 376.324219 345.472656 377.851562 C 374 412.59375 414.714844 484.699219 426.511719 505.972656 C 426.695312 506.300781 426.847656 506.640625 426.96875 506.996094 C 427.089844 507.351562 427.175781 507.714844 427.230469 508.089844 C 427.285156 508.460938 427.300781 508.835938 427.285156 509.210938 C 427.265625 509.585938 427.214844 509.957031 427.128906 510.320312 C 427.042969 510.6875 426.925781 511.042969 426.769531 511.386719 C 426.617188 511.730469 426.4375 512.054688 426.222656 512.367188 C 426.007812 512.675781 425.769531 512.960938 425.503906 513.226562 C 425.234375 513.492188 424.945312 513.726562 424.636719 513.9375 C 418.824219 517.898438 412.65625 521.183594 406.128906 523.792969 C 405.390625 524.082031 404.625 524.214844 403.832031 524.191406 Z M 403.832031 524.191406 "/>
<path style=" stroke:none;fill-rule:nonzero;fill:rgb(93.728638%,36.468506%,31.369019%);fill-opacity:1;" d="M 393.375 615.800781 C 374.71875 615.8125 307.964844 487.160156 294.773438 461.367188 L 294.65625 461.054688 L 280.0625 382.136719 C 279.929688 381.417969 279.871094 380.695312 279.878906 379.964844 C 279.890625 379.234375 279.972656 378.511719 280.125 377.796875 C 280.277344 377.082031 280.496094 376.390625 280.785156 375.71875 C 281.074219 375.050781 281.429688 374.414062 281.84375 373.8125 C 282.257812 373.210938 282.726562 372.660156 283.25 372.148438 C 283.773438 371.640625 284.34375 371.191406 284.957031 370.792969 C 285.570312 370.398438 286.214844 370.066406 286.894531 369.800781 C 287.574219 369.53125 288.269531 369.332031 288.988281 369.203125 L 296.589844 367.828125 C 297.695312 367.625 298.804688 367.46875 299.921875 367.359375 C 301.039062 367.25 302.15625 367.1875 303.28125 367.171875 C 304.402344 367.15625 305.523438 367.1875 306.644531 367.265625 C 307.761719 367.34375 308.878906 367.472656 309.988281 367.644531 C 311.097656 367.816406 312.195312 368.035156 313.285156 368.296875 C 314.378906 368.5625 315.457031 368.871094 316.519531 369.226562 C 317.585938 369.582031 318.632812 369.980469 319.664062 370.421875 C 320.695312 370.867188 321.707031 371.351562 322.699219 371.878906 C 323.691406 372.40625 324.65625 372.976562 325.601562 373.582031 C 326.542969 374.191406 327.460938 374.839844 328.347656 375.523438 C 329.238281 376.210938 330.097656 376.933594 330.925781 377.691406 C 331.753906 378.449219 332.550781 379.238281 333.3125 380.0625 C 334.074219 380.886719 334.800781 381.742188 335.492188 382.628906 C 336.183594 383.515625 336.835938 384.425781 337.449219 385.367188 C 338.0625 386.308594 338.636719 387.273438 339.171875 388.261719 C 339.707031 389.25 340.195312 390.257812 340.644531 391.289062 L 359.714844 471.515625 L 423.476562 579.949219 C 423.996094 581.101562 424.40625 582.292969 424.707031 583.519531 C 425.007812 584.746094 425.195312 585.988281 425.269531 587.25 C 425.34375 588.511719 425.304688 589.769531 425.148438 591.023438 C 424.992188 592.277344 424.722656 593.507812 424.339844 594.710938 C 423.960938 595.914062 423.472656 597.074219 422.878906 598.191406 C 422.285156 599.304688 421.597656 600.359375 420.8125 601.347656 C 420.023438 602.335938 419.15625 603.246094 418.203125 604.074219 C 417.25 604.902344 416.230469 605.640625 415.144531 606.28125 C 408.640625 610.21875 401.765625 613.339844 394.523438 615.640625 C 394.148438 615.75 393.765625 615.804688 393.375 615.800781 Z M 393.375 615.800781 "/>
<path style=" stroke:none;fill-rule:nonzero;fill:rgb(18.429565%,18.03894%,25.489807%);fill-opacity:1;" d="M 292.128906 323.382812 L 216.824219 323.382812 L 216.824219 314.246094 C 216.824219 313 216.886719 311.757812 217.011719 310.515625 C 217.132812 309.277344 217.316406 308.042969 217.5625 306.824219 C 217.804688 305.601562 218.109375 304.394531 218.472656 303.199219 C 218.835938 302.007812 219.253906 300.835938 219.730469 299.683594 C 220.207031 298.535156 220.742188 297.410156 221.328125 296.308594 C 221.914062 295.210938 222.554688 294.144531 223.246094 293.105469 C 223.9375 292.070312 224.679688 291.070312 225.46875 290.109375 C 226.261719 289.144531 227.097656 288.222656 227.976562 287.339844 C 228.855469 286.460938 229.777344 285.625 230.742188 284.832031 C 231.703125 284.042969 232.703125 283.300781 233.738281 282.605469 C 234.773438 281.914062 235.839844 281.273438 236.9375 280.6875 C 238.035156 280.097656 239.160156 279.566406 240.308594 279.085938 C 241.460938 278.609375 242.628906 278.191406 243.820312 277.828125 C 245.011719 277.464844 246.21875 277.160156 247.441406 276.917969 C 248.660156 276.671875 249.890625 276.488281 251.128906 276.367188 C 252.371094 276.242188 253.613281 276.179688 254.855469 276.179688 L 260.941406 276.179688 C 262.1875 276.179688 263.429688 276.242188 264.667969 276.367188 C 265.90625 276.488281 267.136719 276.671875 268.359375 276.917969 C 269.578125 277.160156 270.785156 277.464844 271.976562 277.828125 C 273.167969 278.191406 274.339844 278.609375 275.488281 279.085938 C 276.640625 279.566406 277.765625 280.097656 278.863281 280.6875 C 279.960938 281.273438 281.027344 281.914062 282.0625 282.605469 C 283.097656 283.300781 284.09375 284.042969 285.058594 284.832031 C 286.019531 285.625 286.941406 286.460938 287.824219 287.339844 C 288.703125 288.222656 289.539062 289.144531 290.328125 290.109375 C 291.117188 291.070312 291.859375 292.070312 292.550781 293.105469 C 293.242188 294.144531 293.882812 295.210938 294.472656 296.308594 C 295.058594 297.410156 295.589844 298.535156 296.066406 299.683594 C 296.546875 300.835938 296.964844 302.007812 297.328125 303.199219 C 297.6875 304.394531 297.992188 305.601562 298.238281 306.824219 C 298.480469 308.042969 298.664062 309.277344 298.789062 310.515625 C 298.910156 311.757812 298.972656 313 298.972656 314.246094 L 298.972656 316.53125 C 298.972656 316.980469 298.929688 317.425781 298.839844 317.867188 C 298.753906 318.308594 298.625 318.734375 298.453125 319.152344 C 298.277344 319.566406 298.066406 319.960938 297.820312 320.335938 C 297.570312 320.710938 297.285156 321.054688 296.96875 321.375 C 296.648438 321.691406 296.304688 321.976562 295.929688 322.226562 C 295.554688 322.476562 295.164062 322.6875 294.746094 322.859375 C 294.332031 323.03125 293.902344 323.160156 293.464844 323.25 C 293.023438 323.335938 292.578125 323.382812 292.128906 323.382812 Z M 292.128906 323.382812 "/>
</g>
</svg>
